<svg id="icon" xmlns="http://www.w3.org/2000/svg" viewBox="0 0 512 512" fill="#37c871"><title>analytics</title><path d="M441.7,75h-.07a5.58,5.58,0,0,0-5.58,5.52l-.93,84.73a28.76,28.76,0,0,0-21.59,22.13l-30.34-.2a5.59,5.59,0,0,0-.07,11.17l30.34.19a28.69,28.69,0,1,0,32.83-33.65l.93-84.25A5.58,5.58,0,0,0,441.7,75Zm17.47,118.18a17.54,17.54,0,1,1-17.53-17.54A17.54,17.54,0,0,1,459.17,193.15Z"/><path d="M366.26,318.32a16.86,16.86,0,0,0-21.45-2L331.7,303.22a5.58,5.58,0,1,0-7.89,7.9L336.71,324,324,336.72l-23.08-23.08a163.65,163.65,0,0,0,54.64-122.12c0-90.45-73.59-164-164-164s-164,73.59-164,164A163.89,163.89,0,0,0,139.31,347.08a5.58,5.58,0,1,0,3.55-10.58,152.75,152.75,0,0,1-104.22-145c0-84.29,68.58-152.87,152.87-152.87s152.88,68.58,152.88,152.87S275.81,344.4,191.51,344.4c-4,0-8.14-.16-12.16-.48a5.58,5.58,0,0,0-6,5.13,5.82,5.82,0,0,0,.11,1.51L173.08,387a28.78,28.78,0,0,0-22.14,22.24l-86.14-.8h0a5.58,5.58,0,0,0,0,11.16l86.16.81a28.69,28.69,0,1,0,33.39-33.55l.32-31.46c2.32.1,4.64.16,6.94.16a163.25,163.25,0,0,0,100.83-34.73l24,24a16.88,16.88,0,0,0,2,21.44L426.65,474.61a33.91,33.91,0,0,0,48-47.95ZM196.58,415.08a17.54,17.54,0,1,1-17.53-17.54A17.54,17.54,0,0,1,196.58,415.08ZM466.7,466.71a22.76,22.76,0,0,1-32.16,0L326.2,358.37a5.71,5.71,0,0,1,0-8.06l24.1-24.1a5.7,5.7,0,0,1,8.06,0L466.7,434.55a22.74,22.74,0,0,1,0,32.16Z"/><path d="M92.13,128.37a5.59,5.59,0,0,0-7.62,2.07,123.09,123.09,0,1,0,56.17-51.16,5.58,5.58,0,1,0,4.61,10.17,111,111,0,0,1,46.22-10A112,112,0,1,1,94.2,136,5.59,5.59,0,0,0,92.13,128.37Z"/><path d="M116.05,108.73c.57-.52,1.14-1,1.73-1.55a5.58,5.58,0,0,0-7.36-8.4c-.63.56-1.27,1.12-1.9,1.7a5.58,5.58,0,1,0,7.53,8.25Z"/><path d="M171,145.25a26.07,26.07,0,0,1,19.7,9,5.58,5.58,0,1,0,8.44-7.31,37.21,37.21,0,1,0-33.18,61.21l-.55,64.12a5.59,5.59,0,0,0,5.52,5.65H171a5.59,5.59,0,0,0,5.58-5.52l.55-64.41a37.31,37.31,0,0,0,30.6-30.74l71.57.67h.06a5.59,5.59,0,0,0,.06-11.17l-74.94-.7a5.42,5.42,0,0,0-1.85-.34A5.58,5.58,0,0,0,197,171.3a26,26,0,1,1-26-26.05Z"/></svg>
