<?xml version="1.0" ?><svg viewBox="0 0 64 64" xmlns="http://www.w3.org/2000/svg" stroke="transparent" stroke-width="0.2" fill="#37c871"><g id="outline"><path d="M48.874,34.043a11.953,11.953,0,0,0-4.168-14.991l.306-.548A7.181,7.181,0,0,0,46,15.021V15a8,8,0,0,0-15.993-.328A7.331,7.331,0,0,0,31,18.527l.293.525A11.927,11.927,0,0,0,26.383,26H23a1,1,0,0,0-1-1H9a4,4,0,0,0,0,8H22a1,1,0,0,0,1-1H26.4a11.9,11.9,0,0,0,.731,2.043,21.012,21.012,0,0,0-9.891,21.106,1,1,0,0,0,.989.851H57.776a1,1,0,0,0,.989-.851,21.012,21.012,0,0,0-9.891-21.106ZM21,31H9a2,2,0,0,1,0-4H21Zm5-1H23V28h3Zm6.155-16.354a6.009,6.009,0,0,1,4.8-4.558A6.334,6.334,0,0,1,38.011,9a5.925,5.925,0,0,1,3.864,1.419A6,6,0,0,1,44,15h1l-1,.018a5.2,5.2,0,0,1-.734,2.509L38,26.95l-5.252-9.4a5.348,5.348,0,0,1-.743-2.8A6.183,6.183,0,0,1,32.155,13.646ZM44.5,29A6.5,6.5,0,1,1,34,23.888l3.13,5.6a1,1,0,0,0,1.746,0l3.13-5.6A6.461,6.461,0,0,1,44.5,29ZM32.272,20.8l.745,1.333a8.5,8.5,0,1,0,9.966,0l.745-1.333a10,10,0,1,1-11.456,0ZM46.206,44.44a62.707,62.707,0,0,0-16.412,0,32.117,32.117,0,0,1,2.276-5.021,11.912,11.912,0,0,0,11.86,0A32.117,32.117,0,0,1,46.206,44.44ZM26.034,54H19.1a19.328,19.328,0,0,1-.1-2,18.788,18.788,0,0,1,.3-3.294l4.061-1.016Q25.168,47.239,27,46.9A33.988,33.988,0,0,0,26.034,54Zm-3.158-8.249-3.05.762a19.079,19.079,0,0,1,8.285-10.729,12.088,12.088,0,0,0,2.3,2.5A33.979,33.979,0,0,0,27.6,44.772C26.011,45.039,24.436,45.361,22.876,45.751ZM28.034,54a32.013,32.013,0,0,1,1.1-7.427,60.63,60.63,0,0,1,17.732,0A32.013,32.013,0,0,1,47.966,54ZM57,52a19.328,19.328,0,0,1-.1,2h-6.93A33.988,33.988,0,0,0,49,46.9q1.828.339,3.637.789L56.7,48.706A18.788,18.788,0,0,1,57,52Zm-3.876-6.249c-1.56-.39-3.135-.712-4.719-.979a33.979,33.979,0,0,0-2.818-6.485,12.088,12.088,0,0,0,2.3-2.5,19.079,19.079,0,0,1,8.285,10.729Z"/><path d="M38,18a4,4,0,1,0-4-4A4,4,0,0,0,38,18Zm0-6a2,2,0,1,1-2,2A2,2,0,0,1,38,12Z"/></g></svg>
