<?xml version="1.0" encoding="UTF-8" standalone="no"?>
<svg
   xmlns:dc="http://purl.org/dc/elements/1.1/"
   xmlns:cc="http://creativecommons.org/ns#"
   xmlns:rdf="http://www.w3.org/1999/02/22-rdf-syntax-ns#"
   xmlns:svg="http://www.w3.org/2000/svg"
   xmlns="http://www.w3.org/2000/svg"
   xmlns:sodipodi="http://sodipodi.sourceforge.net/DTD/sodipodi-0.dtd"
   xmlns:inkscape="http://www.inkscape.org/namespaces/inkscape"
   width="128"
   height="128"
   viewBox="0 0 33.866666 33.866668"
   version="1.1"
   id="svg857"
   inkscape:version="1.0.2 (e86c870879, 2021-01-15)"
   sodipodi:docname="logo_montiweb_128.svg"
   inkscape:export-filename="/home/xip/Documentos/montiweb/logo_montiweb_128.png"
   inkscape:export-xdpi="95"
   inkscape:export-ydpi="95">
  <defs
     id="defs851" />
  <sodipodi:namedview
     id="base"
     pagecolor="#ffffff"
     bordercolor="#666666"
     borderopacity="1.0"
     inkscape:pageopacity="0.0"
     inkscape:pageshadow="2"
     inkscape:zoom="2.8"
     inkscape:cx="121.6608"
     inkscape:cy="111.15122"
     inkscape:document-units="mm"
     inkscape:current-layer="layer1"
     inkscape:document-rotation="0"
     showgrid="false"
     units="px"
     showguides="true"
     inkscape:guide-bbox="true"
     inkscape:lockguides="false"
     inkscape:window-width="1269"
     inkscape:window-height="846"
     inkscape:window-x="45"
     inkscape:window-y="45"
     inkscape:window-maximized="0">
    <sodipodi:guide
       position="-0.39107986,33.91133"
       orientation="0,-1"
       id="guide1452"
       inkscape:locked="false" />
    <sodipodi:guide
       position="6.8035713,-0.34017862"
       orientation="0,-1"
       id="guide1454"
       inkscape:locked="false" />
    <sodipodi:guide
       position="0,16.857739"
       orientation="1,0"
       id="guide1456"
       inkscape:locked="false" />
    <sodipodi:guide
       position="34.206845,12.511012"
       orientation="1,0"
       id="guide1458"
       inkscape:locked="false" />
    <sodipodi:guide
       position="13.040178,33.911331"
       orientation="0,-1"
       id="guide1460" />
  </sodipodi:namedview>
  <metadata
     id="metadata854">
    <rdf:RDF>
      <cc:Work
         rdf:about="">
        <dc:format>image/svg+xml</dc:format>
        <dc:type
           rdf:resource="http://purl.org/dc/dcmitype/StillImage" />
        <dc:title></dc:title>
      </cc:Work>
    </rdf:RDF>
  </metadata>
  <g
     inkscape:label="Capa 1"
     inkscape:groupmode="layer"
     id="layer1">
    <g
       id="g1486"
       inkscape:export-xdpi="95"
       inkscape:export-ydpi="95">
      <path
         id="path1733"
         style="opacity:0.998;fill:#37c871;fill-opacity:1;stroke:none;stroke-width:0.410443;stroke-miterlimit:4;stroke-dasharray:none"
         d="M 25.578139,2.5368005 A 16.83333,16.83333 0 0 0 8.687085,2.5032544 16.83333,16.83333 0 0 0 2.8399754,8.1425957 1.5851689,1.5851689 0 0 0 3.0522538,8.9452857 1.5851689,1.5851689 0 0 0 4.4250824,9.73789 1.5851689,1.5851689 0 0 0 5.2263696,9.5203818 14.079454,14.079454 0 0 1 10.063388,4.8879633 14.079454,14.079454 0 0 1 29.264481,9.985704 1.5851689,1.5851689 0 0 1 29.476293,9.1996811 1.5851689,1.5851689 0 0 1 30.849295,8.4072572 1.5851689,1.5851689 0 0 1 31.662445,8.6314182 16.83333,16.83333 0 0 0 25.578139,2.5368033 Z M 31.974665,9.19401 a 1.5851689,1.5851689 0 0 0 -0.794677,-0.2140497 1.5851689,1.5851689 0 0 0 -1.373,0.7924264 1.5851689,1.5851689 0 0 0 -0.212524,0.8121273 14.079454,14.079454 0 0 1 -5.451204,18.689831 14.079454,14.079454 0 0 1 -6.966744,1.885649 1.5851689,1.5851689 0 0 1 0.567793,0.572576 1.5851689,1.5851689 0 0 1 2.41e-4,1.585262 1.5851689,1.5851689 0 0 1 -0.608369,0.5963 16.83333,16.83333 0 0 0 8.383386,-2.25508 16.83333,16.83333 0 0 0 0.02909,-0.01686 16.83333,16.83333 0 0 0 6.426005,-22.4481438 z M 2.5096242,8.6927696 A 16.83333,16.83333 0 0 0 0.27036839,17.042195 16.83333,16.83333 0 0 0 2.525424,25.497396 16.83333,16.83333 0 0 0 16.495265,33.902668 1.5851689,1.5851689 0 0 0 17.083226,33.317796 1.5851689,1.5851689 0 0 0 17.083399,31.732768 1.5851689,1.5851689 0 0 0 16.493884,31.147105 14.079454,14.079454 0 0 1 4.9103728,24.120677 14.079454,14.079454 0 0 1 4.8737898,10.105236 1.5851689,1.5851689 0 0 1 4.0944551,10.310555 1.5851689,1.5851689 0 0 1 2.7216275,9.5179506 1.5851689,1.5851689 0 0 1 2.5096278,8.6927696 Z" />
      <path
         d="m 14.347323,5.9878337 2.841443,7.7620473 c 0,0 1.84851,-6.7443439 2.776255,-7.6892473 0.823114,-0.8383375 3.445893,-0.8383375 4.271405,-0.043064 6.879306,6.7605383 6.879306,16.9548683 -0.03003,22.6467553 0.0053,0.147396 -5.995734,0.04361 -5.995734,0.04361 4.013957,-5.694707 5.044646,-13.321921 3.644577,-15.929942 0,0 -1.354868,6.681518 -3.688561,8.87747 -0.248493,0.233826 -0.453607,0.341958 -0.967397,0.334598 -0.497745,-0.0071 -0.770035,-0.102749 -1.034592,-0.35338 -2.311308,-2.189638 -3.571113,-8.858729 -3.571113,-8.858729 -1.349472,2.646005 -0.374358,10.19434 3.347956,15.96242 l -5.790014,-0.0018 C 3.1740895,22.97241 2.9134432,12.77808 10.111399,5.9367639 11.1645,5.2521143 13.564471,5.222271 14.347323,5.9878004 Z"
         style="font-size:25.4px;line-height:1.25;font-family:Roboto;-inkscape-font-specification:Roboto;stroke-width:0.283328;fill:#4d4d4d"
         id="path1776"
         sodipodi:nodetypes="ccsccccsssccccsc" />
    </g>
  </g>
</svg>
