<?xml version="1.0" encoding="UTF-8" standalone="no"?>
<svg
   xmlns:dc="http://purl.org/dc/elements/1.1/"
   xmlns:cc="http://creativecommons.org/ns#"
   xmlns:rdf="http://www.w3.org/1999/02/22-rdf-syntax-ns#"
   xmlns:svg="http://www.w3.org/2000/svg"
   xmlns="http://www.w3.org/2000/svg"
   xmlns:sodipodi="http://sodipodi.sourceforge.net/DTD/sodipodi-0.dtd"
   xmlns:inkscape="http://www.inkscape.org/namespaces/inkscape"
   width="520"
   height="520"
   viewBox="0 0 137.58333 137.58333"
   version="1.1"
   id="svg1947"
   inkscape:version="1.0.2 (e86c870879, 2021-01-15)"
   sodipodi:docname="logo_montiweb_520x520_plano.svg">
  <defs
     id="defs1941" />
  <sodipodi:namedview
     id="base"
     pagecolor="#ffffff"
     bordercolor="#666666"
     borderopacity="1.0"
     inkscape:pageopacity="0.0"
     inkscape:pageshadow="2"
     inkscape:zoom="1.979899"
     inkscape:cx="233.13349"
     inkscape:cy="286.13366"
     inkscape:document-units="mm"
     inkscape:current-layer="layer1"
     inkscape:document-rotation="0"
     showgrid="false"
     units="px"
     showguides="true"
     inkscape:guide-bbox="true"
     inkscape:window-width="1269"
     inkscape:window-height="846"
     inkscape:window-x="45"
     inkscape:window-y="45"
     inkscape:window-maximized="0">
    <sodipodi:guide
       position="-2.431007,137.57429"
       orientation="0,-1"
       id="guide1981" />
    <sodipodi:guide
       position="0.0062749952,139.60203"
       orientation="1,0"
       id="guide1983" />
    <sodipodi:guide
       position="137.6703,138.65397"
       orientation="1,0"
       id="guide1985" />
    <sodipodi:guide
       position="103.49313,-0.79286417"
       orientation="0,-1"
       id="guide1987" />
    <sodipodi:guide
       position="69.925594,50.743302"
       orientation="0,-1"
       id="guide845" />
    <sodipodi:guide
       position="69.222806,88.004834"
       orientation="1,0"
       id="guide847" />
    <sodipodi:guide
       position="73.225063,86.884077"
       orientation="1,0"
       id="guide849" />
    <sodipodi:guide
       position="65.146946,84.53033"
       orientation="1,0"
       id="guide851" />
    <sodipodi:guide
       position="77.474752,85.578267"
       orientation="0,-1"
       id="guide853" />
    <sodipodi:guide
       position="93.143428,67.558715"
       orientation="1,0"
       id="guide855" />
    <sodipodi:guide
       position="46.010552,98.859526"
       orientation="1,0"
       id="guide857" />
  </sodipodi:namedview>
  <metadata
     id="metadata1944">
    <rdf:RDF>
      <cc:Work
         rdf:about="">
        <dc:format>image/svg+xml</dc:format>
        <dc:type
           rdf:resource="http://purl.org/dc/dcmitype/StillImage" />
        <dc:title />
      </cc:Work>
    </rdf:RDF>
  </metadata>
  <g
     inkscape:label="Capa 1"
     inkscape:groupmode="layer"
     id="layer1">
    <path
       id="path1733"
       style="opacity:0.998;fill:#37c871;fill-opacity:1;stroke:none;stroke-width:1.61397;stroke-miterlimit:4;stroke-dasharray:none"
       d="m 102.16312,11.734257 a 66.193106,66.193106 0 0 0 -66.420091,-0.131912 66.193106,66.193106 0 0 0 -22.992381,22.175381 6.2333031,6.2333031 0 0 0 0.834735,3.156389 6.2333031,6.2333031 0 0 0 5.398325,3.11673 6.2333031,6.2333031 0 0 0 3.150873,-0.8553 55.364136,55.364136 0 0 1 19.020437,-18.215894 55.364136,55.364136 0 0 1 75.503772,20.045664 6.2333031,6.2333031 0 0 1 0.8329,-3.09085 6.2333031,6.2333031 0 0 1 5.39901,-3.11602 6.2333031,6.2333031 0 0 1 3.19752,0.88146 66.193106,66.193106 0 0 0 -23.9251,-23.965637 z m 25.15283,26.177908 a 6.2333031,6.2333031 0 0 0 -3.12488,-0.8417 6.2333031,6.2333031 0 0 0 -5.399,3.11603 6.2333031,6.2333031 0 0 0 -0.8357,3.1935 55.364136,55.364136 0 0 1 -21.435573,73.493355 55.364136,55.364136 0 0 1 -27.39508,7.41487 6.2333031,6.2333031 0 0 1 2.23271,2.25152 6.2333031,6.2333031 0 0 1 9.5e-4,6.23367 6.2333031,6.2333031 0 0 1 -2.39227,2.34481 66.193106,66.193106 0 0 0 32.965693,-8.86757 66.193106,66.193106 0 0 0 0.11439,-0.0663 66.193106,66.193106 0 0 0 25.26875,-88.272035 z M 11.45162,35.941155 a 66.193106,66.193106 0 0 0 -8.805346,32.83215 66.193106,66.193106 0 0 0 8.867475,33.248085 66.193106,66.193106 0 0 0 54.933108,33.05175 6.2333031,6.2333031 0 0 0 2.31202,-2.29987 6.2333031,6.2333031 0 0 0 6.8e-4,-6.23275 6.2333031,6.2333031 0 0 0 -2.31813,-2.30298 55.364136,55.364136 0 0 1 -45.549429,-27.629775 55.364136,55.364136 0 0 1 -0.143854,-55.11242 6.2333031,6.2333031 0 0 1 -3.06455,0.80737 6.2333031,6.2333031 0 0 1 -5.398321,-3.11673 6.2333031,6.2333031 0 0 1 -0.833639,-3.24483 z" />
    <path
       d="m 58.000583,25.304632 11.173304,30.522423 c 0,0 7.26883,-26.520544 10.91697,-30.236154 3.2367,-3.296565 13.55016,-3.296565 16.79629,-0.16934 27.051253,26.584224 27.051253,66.671024 -0.11808,89.053029 0.0208,0.5796 -23.57681,0.17148 -23.57681,0.17148 15.78394,-22.393095 19.83688,-52.385315 14.33144,-62.640745 0,0 -5.327702,26.273495 -14.5044,34.90856 -0.97714,0.919467 -1.783701,1.344668 -3.804058,1.315729 C 67.257975,88.201574 66.187258,87.825577 65.146948,86.84003 56.058274,78.229795 51.10439,52.005165 51.10439,52.005165 c -5.306482,10.40479 -1.472075,40.08684 13.165047,62.768455 l -22.767866,-0.007 C 14.064473,92.092475 13.039543,52.005675 41.343809,25.103812 c 4.141069,-2.692223 13.578392,-2.809575 16.656774,0.200689 z"
       style="font-size:25.4px;line-height:1.25;font-family:Roboto;-inkscape-font-specification:Roboto;stroke-width:1.11412"
       id="path1776"
       sodipodi:nodetypes="ccsccccsssccccsc" />
  </g>
</svg>
