<?xml version="1.0" encoding="UTF-8" standalone="no"?>
<svg
   xmlns:dc="http://purl.org/dc/elements/1.1/"
   xmlns:cc="http://creativecommons.org/ns#"
   xmlns:rdf="http://www.w3.org/1999/02/22-rdf-syntax-ns#"
   xmlns:svg="http://www.w3.org/2000/svg"
   xmlns="http://www.w3.org/2000/svg"
   xmlns:sodipodi="http://sodipodi.sourceforge.net/DTD/sodipodi-0.dtd"
   xmlns:inkscape="http://www.inkscape.org/namespaces/inkscape"
   width="101.28821mm"
   height="96.411751mm"
   viewBox="0 0 101.28821 96.411751"
   version="1.1"
   id="svg11785"
   inkscape:version="1.0.2 (e86c870879, 2021-01-15)"
   sodipodi:docname="salpicadura.svg">
  <defs
     id="defs11779" />
  <sodipodi:namedview
     id="base"
     pagecolor="#ffffff"
     bordercolor="#666666"
     borderopacity="1.0"
     inkscape:pageopacity="0.0"
     inkscape:pageshadow="2"
     inkscape:zoom="0.35"
     inkscape:cx="99.982212"
     inkscape:cy="347.90973"
     inkscape:document-units="mm"
     inkscape:current-layer="layer1"
     inkscape:document-rotation="0"
     showgrid="false"
     fit-margin-top="0"
     fit-margin-left="0"
     fit-margin-right="0"
     fit-margin-bottom="0"
     inkscape:window-width="1920"
     inkscape:window-height="1030"
     inkscape:window-x="0"
     inkscape:window-y="0"
     inkscape:window-maximized="1" />
  <metadata
     id="metadata11782">
    <rdf:RDF>
      <cc:Work
         rdf:about="">
        <dc:format>image/svg+xml</dc:format>
        <dc:type
           rdf:resource="http://purl.org/dc/dcmitype/StillImage" />
        <dc:title></dc:title>
      </cc:Work>
    </rdf:RDF>
  </metadata>
  <g
     inkscape:label="Capa 1"
     inkscape:groupmode="layer"
     id="layer1"
     transform="translate(-79.379706,-25.877456)">
    <g
       id="g11777"
       transform="matrix(0.35277777,0,0,-0.35277777,72.184698,311.52146)">
      <path
         d="m 280.17,777.863 c -0.481,0.11 -0.275,-0.355 -0.339,-0.602 -2.56,-0.925 -4.838,-2.861 -7.493,-3.445 -0.208,-0.486 -0.495,-0.47 -0.509,-0.902 -0.479,-0.002 -0.84,-0.424 -1.399,-0.137 1.694,1.365 3.875,2.627 5.849,3.578 1.287,0.619 2.688,2.206 4.117,1.909 0.325,-0.163 -0.274,-0.5 -0.251,-0.916 -0.359,0.07 -0.052,0.325 0.025,0.515"
         style="fill:#000000;fill-opacity:1;fill-rule:evenodd;stroke:none;stroke-width:0.1"
         id="path5536" />
      <path
         d="m 221.127,809.15 c 3.876,-1.575 2.756,-6.441 -0.382,-7.716 -1.869,-0.76 -4.19,0.437 -5.068,1.798 -1.758,2.725 1.261,6.581 3.775,6.465 0.464,-0.022 1.011,-0.277 1.675,-0.547 z m -2.221,-1.127 c 0.597,-0.322 1.182,-0.605 1.586,-0.234 -0.32,0.427 -1.186,0.498 -1.586,0.234 z m 2.524,-4.2 c 0.134,-0.075 0.268,-0.151 0.402,-0.226 0.334,0.235 0.433,0.682 -0.006,0.929 -0.219,-0.053 -0.463,-0.488 -0.396,-0.703"
         style="fill:#000000;fill-opacity:1;fill-rule:evenodd;stroke:none;stroke-width:0.1"
         id="path5538" />
      <path
         d="m 265.93,770.42 c -0.065,-0.848 -1.535,-0.908 -1.803,-2.024 -2.648,-1.315 -5.03,-3.583 -7.976,-3.833 -0.172,0.919 0.995,1.472 1.576,1.624 0.177,0.218 -0.06,0.32 0.182,0.557 2.612,1.301 5.347,3.585 8.021,3.676"
         style="fill:#000000;fill-opacity:1;fill-rule:evenodd;stroke:none;stroke-width:0.1"
         id="path5542" />
      <path
         d="m 170.941,788.12 c -0.438,-1.785 -1.658,-4.143 -3.378,-3.648 0.037,1.024 0.154,2.072 0.153,3.086 0.327,0.538 0.805,0.411 0.879,1.091 0.678,0.202 1.716,0.021 2.346,-0.529 z m -1.175,-1.849 c 0.176,0.246 0.207,0.452 -0.075,0.57 -0.176,-0.246 -0.206,-0.452 0.075,-0.57"
         style="fill:#000000;fill-opacity:1;fill-rule:evenodd;stroke:none;stroke-width:0.1"
         id="path5546" />
      <path
         d="m 235.48,748.053 c -0.25,-0.419 -0.608,-0.448 -0.998,-0.363 0.329,0.136 0.582,0.539 0.998,0.363"
         style="fill:#000000;fill-opacity:1;fill-rule:evenodd;stroke:none;stroke-width:0.1"
         id="path5548" />
      <path
         d="m 195.698,764.256 c 0.515,-1.244 1.362,-2.176 1.534,-3.376 0.563,-3.919 -3.37,-7.309 -5.641,-9.777 -1.31,-0.156 -2.52,-0.503 -4.032,0.818 0.014,1.612 -1.048,2.921 -2.582,4.099 -0.717,1.773 -0.952,3.681 -0.592,5.754 2.444,3.605 6.236,6.417 11.313,2.482 z m -5.591,-1.477 c 0.7,-0.488 1.264,-0.489 1.744,-0.189 -0.163,0.517 -1.367,0.783 -1.744,0.189 z m 2.292,-5.786 c 0.167,-0.093 0.335,-0.188 0.501,-0.282 0.278,0.217 0.261,0.414 0.296,0.759 -0.134,0.075 -0.268,0.15 -0.401,0.225 -0.219,-0.052 -0.463,-0.487 -0.396,-0.702"
         style="fill:#000000;fill-opacity:1;fill-rule:evenodd;stroke:none;stroke-width:0.1"
         id="path5550" />
      <path
         d="m 273.05,693.438 c -0.389,-1.234 -1.929,-0.967 -3.069,-0.518 0.826,0.88 1.926,0.774 3.069,0.518"
         style="fill:#000000;fill-opacity:1;fill-rule:evenodd;stroke:none;stroke-width:0.1"
         id="path5552" />
      <path
         d="m 130.927,752.767 c -0.52,0.419 -0.437,1.005 -1.38,1.306 -1.449,2.554 1.455,6.036 4.307,3.654 0.551,-0.945 0.748,-1.989 0.462,-3.169 -1.023,-0.982 -2.096,-1.781 -3.389,-1.791 z m 2.041,2.684 c 0.056,0.1 0.112,0.199 0.169,0.301 -0.16,0.067 -0.35,0.244 -0.458,0.125 0.134,-0.132 -0.092,-0.364 0.289,-0.426"
         style="fill:#000000;fill-opacity:1;fill-rule:evenodd;stroke:none;stroke-width:0.1"
         id="path5554" />
      <path
         d="m 48.4848,769.742 c -2.3114,-0.292 -4.0547,-1.818 -6.6453,-1.941 -2.5028,-0.117 -5.5934,1.183 -7.859,2.711 -2.293,1.546 -3.759,3.828 -5.1344,5.668 -0.1457,1.736 -1.1176,3.29 -0.7738,5.196 0.6574,3.642 4.1082,7.026 6.5445,9.267 1.834,0.93 3.659,1.376 5.7727,2.035 2.3355,0.728 4.1277,0.824 6.9136,0.07 1.7047,-0.461 4.025,-1.422 6.0895,-3.034 2.682,-2.096 3.1519,-5.781 2.2832,-9.087 -0.5004,-1.905 -1.0883,-2.9 -1.9293,-4.597 -1.1246,-2.27 -2.9988,-4.876 -5.2617,-6.288 z m -1.8321,17.16 c -0.0961,-0.952 1.8711,-1.554 2.2895,-0.629 -0.3289,0.741 -1.7942,1.213 -2.2895,0.629 z m 4.102,-9.847 c -0.3422,-0.596 0.3082,-1.453 0.8648,-1.28 0.3399,0.646 -0.1859,1.155 -0.8648,1.28"
         style="fill:#000000;fill-opacity:1;fill-rule:evenodd;stroke:none;stroke-width:0.1"
         id="path5556" />
      <path
         d="m 276.568,649.946 c -0.119,0.334 -0.298,0.65 -0.206,1.042 1.162,2.328 2.829,3.28 4.834,3.887 1.047,-0.848 2.68,-1.378 3.575,-0.694 0.297,0.562 -0.046,0.945 0.02,1.443 2.479,-0.053 5.38,-0.573 7.414,-2.327 0.892,-0.768 1.527,-1.97 2.218,-3.1 0.67,-1.096 1.763,-2.157 2.062,-3.145 0.576,-1.906 -1.207,-3.819 -1.893,-5.939 -2.231,-1.209 -4.989,-4.004 -7.932,-3.992 -0.663,0.004 -1.586,0.307 -2.403,0.429 -1.61,0.241 -2.815,0.214 -4.723,1.471 -0.774,0.51 -2.004,1.286 -2.627,2.142 -0.693,0.951 -2.079,3.62 -2.143,4.645 -0.047,0.766 0.423,1.572 0.216,2.258 0.2,0.711 0.627,0.793 0.434,1.473 0.331,0.329 0.767,0.281 1.154,0.407 z m 11.805,-3.215 c 0.054,-0.647 1.853,-1.714 2.189,-0.572 -0.515,0.564 -1.74,1.237 -2.189,0.572"
         style="fill:#000000;fill-opacity:1;fill-rule:evenodd;stroke:none;stroke-width:0.1"
         id="path5558" />
      <path
         d="m 283.323,655.13 c -0.362,-0.368 -0.983,-0.567 -1.343,-0.037 0.374,0.323 0.979,0.583 1.343,0.037"
         style="fill:#000000;fill-opacity:1;fill-rule:evenodd;stroke:none;stroke-width:0.1"
         id="path5560" />
      <path
         d="m 240.38,638.743 c -0.037,-2.181 1.434,-3.773 0.29,-5.584 -0.409,-0.647 -1.241,-1.389 -2.059,-2.012 -0.739,-0.564 -1.622,-1.329 -2.303,-1.742 -1.983,-1.203 -5.57,-1.132 -7.454,-0.559 -1.032,0.314 -2.774,0.999 -3.669,1.935 -0.33,0.346 -0.741,1.228 -1.196,1.864 -0.936,1.306 -1.981,2.973 -1.415,4.762 0.353,1.115 1.37,1.507 1.257,2.465 3.53,6.845 12.561,4.604 16.549,-1.129 z m -9.678,3.47 c 0.543,-0.66 1.636,-0.86 2.146,-0.415 -0.302,0.722 -1.705,1.111 -2.146,0.415 z m 5.021,-5.869 c 0.076,-0.489 1.306,-1.184 1.574,-0.49 0.053,0.564 -1.246,1.213 -1.574,0.49"
         style="fill:#000000;fill-opacity:1;fill-rule:evenodd;stroke:none;stroke-width:0.1"
         id="path5562" />
      <path
         d="m 69.2098,715.496 c -0.766,-3.684 -2.4211,-6.341 -5.1942,-8.045 -0.9386,-0.17 -1.8597,-0.403 -2.6797,-1.001 -1.9125,0.225 -4.073,0.181 -6.0214,1.277 -1.2454,0.702 -2.559,2.453 -2.9649,3.654 -0.1242,0.368 0.125,0.898 0.0195,1.443 -0.0824,0.431 -0.4628,0.83 -0.507,1.212 -0.134,1.158 0.3399,2.944 0.8063,3.776 0.7445,1.329 1.9543,2.178 2.65,3.529 1.3082,0.833 2.7109,1.422 4.2168,1.854 0.3945,0.114 0.8378,0.385 1.1546,0.407 1.5352,0.111 3.261,-0.889 4.5665,-1.514 2.9546,-1.418 3.439,-4.369 3.9535,-6.592 z m -7.5121,4.498 c 0.4964,-0.594 1.6011,-0.945 2.0449,-0.359 -0.2106,0.535 -1.6215,0.988 -2.0449,0.359 z m 4.0414,-6.904 c 0.3097,-0.196 0.6062,-0.651 1.0031,-0.565 0.2707,0.539 -0.6859,1.315 -1.0031,0.565"
         style="fill:#000000;fill-opacity:1;fill-rule:evenodd;stroke:none;stroke-width:0.1"
         id="path5564" />
      <path
         d="m 40.4203,706.867 c -0.198,1.358 -0.4687,1.787 0.0527,3.143 0.5438,1.414 2.7915,2.362 3.8157,2.08 5.9297,-1.635 0.2758,-10.247 -3.8684,-5.223 z m 3.0641,3.561 c 0.3734,-0.127 0.7715,-0.341 1.0726,-0.208 -0.3836,0.162 -0.7914,0.413 -1.0726,0.208 z m 1.9246,-1.746 c -0.1895,-0.286 0.159,-0.555 0.3883,-0.483 0.2418,0.395 -0.1075,0.411 -0.3883,0.483"
         style="fill:#000000;fill-opacity:1;fill-rule:evenodd;stroke:none;stroke-width:0.1"
         id="path5566" />
      <path
         d="m 166.404,635.084 c 0.098,-0.17 0.234,-0.329 0.075,-0.571 -0.049,0.212 -0.44,0.328 -0.489,0.54 0.105,0.132 0.319,-0.133 0.414,0.031"
         style="fill:#000000;fill-opacity:1;fill-rule:evenodd;stroke:none;stroke-width:0.1"
         id="path5568" />
      <path
         d="m 167.733,632.75 c 2.658,-1.367 4.056,-3.595 5.692,-5.852 1.096,-1.51 2.103,-2.439 2.067,-4.073 -0.767,-0.037 -1.478,0.933 -2.251,1.401 -0.83,1.983 -2.737,3.095 -3.886,4.833 -0.736,1.114 -0.847,2.629 -1.622,3.691"
         style="fill:#000000;fill-opacity:1;fill-rule:evenodd;stroke:none;stroke-width:0.1"
         id="path5570" />
      <path
         d="m 33.8695,705.798 c 1.4047,-2.463 2.8535,-4.73 1.3309,-7.491 -0.4996,-0.905 -1.4496,-2.149 -2.1539,-2.884 -1.8621,-1.944 -5.6453,-1.763 -7.5852,-0.089 -0.3082,0.267 -0.3281,0.78 -0.564,1.111 -0.3891,0.547 -1.3844,1.137 -1.6547,1.991 -0.0563,0.178 0.1183,0.499 0.0953,0.871 -0.0445,0.72 -0.2574,2.393 0.0523,3.143 1.0141,2.457 3.4758,4.179 5.5301,4.419 2.1301,0.249 3.1461,0.032 4.9492,-1.071 z m -3.2504,-1.076 c 0.402,-0.442 1.4528,-0.827 1.8438,-0.246 -0.6918,0.36 -1.3297,0.525 -1.8438,0.246 z m 3.5157,-5.021 c 0.3492,-0.14 0.7933,-0.621 1.0164,-0.308 0.0613,0.417 -0.8305,0.821 -1.0164,0.308"
         style="fill:#000000;fill-opacity:1;fill-rule:evenodd;stroke:none;stroke-width:0.1"
         id="path5572" />
      <path
         d="m 164.937,627.318 c -0.218,-0.126 -0.395,-0.401 -0.597,-0.589 -2.717,0.576 -2.008,2.814 -3.41,4.037 1.777,0.739 3.584,-2.036 4.007,-3.448"
         style="fill:#000000;fill-opacity:1;fill-rule:evenodd;stroke:none;stroke-width:0.1"
         id="path5574" />
      <path
         d="m 185.945,616.274 c -0.17,-0.3 -0.417,-0.32 -0.684,-0.276 -0.238,0.216 -0.237,0.498 -0.061,0.829 0.203,0.046 0.575,-0.337 0.745,-0.553"
         style="fill:#000000;fill-opacity:1;fill-rule:evenodd;stroke:none;stroke-width:0.1"
         id="path5576" />
      <path
         d="m 178.225,619.699 c -0.457,-0.17 -1.445,0.635 -1.022,1.237 0.458,-0.074 1.152,-0.727 1.022,-1.237"
         style="fill:#000000;fill-opacity:1;fill-rule:evenodd;stroke:none;stroke-width:0.1"
         id="path5578" />
      <path
         d="m 204.784,597.859 c -0.294,-0.372 -1.12,-0.074 -1.374,0.377 0.33,0.963 1.278,0.086 1.374,-0.377"
         style="fill:#000000;fill-opacity:1;fill-rule:evenodd;stroke:none;stroke-width:0.1"
         id="path5580" />
      <path
         d="m 153.535,623.036 c 0.249,-0.154 0.026,-0.507 -0.183,-0.559 -0.082,0.203 -0.399,0.34 -0.175,0.628 0.137,-0.088 0.275,-0.177 0.358,-0.069"
         style="fill:#000000;fill-opacity:1;fill-rule:evenodd;stroke:none;stroke-width:0.1"
         id="path5582" />
      <path
         d="m 221.718,582.633 c -0.17,-0.301 -0.339,-0.602 -0.509,-0.903 -1.468,-0.185 -3.363,1.891 -5.035,3.498 -0.641,0.616 -1.199,1.381 -1.241,2.021 1.228,0.578 2.226,-0.847 3.123,-1.495 1.447,-1.046 3.075,-1.741 3.662,-3.121"
         style="fill:#000000;fill-opacity:1;fill-rule:evenodd;stroke:none;stroke-width:0.1"
         id="path5584" />
      <path
         d="m 120.573,623.895 c 0.273,-0.234 0.217,-0.56 0.32,-0.841 -0.176,-0.177 -0.41,-0.146 -0.54,-0.489 -0.467,0.267 -0.23,1.076 0.22,1.33"
         style="fill:#000000;fill-opacity:1;fill-rule:evenodd;stroke:none;stroke-width:0.1"
         id="path5586" />
      <path
         d="m 194.604,575.57 c -0.11,-0.425 0.13,-0.752 0.307,-1.098 -0.778,0.01 -1.68,1.369 -2.169,2.016 0.512,0.255 0.953,-0.599 1.862,-0.918"
         style="fill:#000000;fill-opacity:1;fill-rule:evenodd;stroke:none;stroke-width:0.1"
         id="path5588" />
      <path
         d="m 198.359,571.207 c -1.198,-0.736 -2.281,1.108 -2.483,1.928 1.206,-0.413 2.513,-0.621 2.483,-1.928"
         style="fill:#000000;fill-opacity:1;fill-rule:evenodd;stroke:none;stroke-width:0.1"
         id="path5590" />
      <path
         d="m 210.672,559.51 c -0.392,0.116 -0.361,0.351 -0.489,0.54 0.23,0.315 0.929,-0.169 0.489,-0.54"
         style="fill:#000000;fill-opacity:1;fill-rule:evenodd;stroke:none;stroke-width:0.1"
         id="path5592" />
      <path
         d="m 209.886,557.177 c -0.755,-0.48 -1.354,0.716 -1.122,1.293 0.604,-0.057 0.829,-0.874 1.122,-1.293"
         style="fill:#000000;fill-opacity:1;fill-rule:evenodd;stroke:none;stroke-width:0.1"
         id="path5594" />
      <path
         d="m 32.4703,646.307 c -0.2195,-0.412 0.4082,-0.092 0.6457,-0.496 -0.4758,-2.34 -3.3672,-2.611 -5.1785,-3.559 -1.5785,-0.828 -2.9707,-1.976 -4.3742,-1.898 -0.4879,-0.718 -1.5281,-1.927 -2.8051,-1.46 -0.2785,0.289 -0.0531,0.718 -0.3629,0.998 0.7117,0.883 1.6047,1.116 2.5793,1.058 2.6539,2.996 5.6774,5.151 9.4957,5.357"
         style="fill:#000000;fill-opacity:1;fill-rule:evenodd;stroke:none;stroke-width:0.1"
         id="path5596" />
      <path
         d="m 272.578,783.861 c -0.565,-0.519 -1.24,-1.554 -1.883,-0.526 0.054,-0.087 0.576,0.599 1.08,0.978 0.267,-0.151 0.534,-0.302 0.803,-0.452"
         style="fill:#000000;fill-opacity:1;fill-rule:evenodd;stroke:none;stroke-width:0.1"
         id="path5600" />
      <path
         d="m 223.17,797.291 c -0.274,0.661 0.85,1.874 1.318,1.637 0.667,-0.337 -0.297,-2.149 -1.318,-1.637"
         style="fill:#000000;fill-opacity:1;fill-rule:evenodd;stroke:none;stroke-width:0.1"
         id="path5602" />
      <path
         d="m 212.788,799.043 c 0.144,0.111 0.116,-0.079 0,0 -0.026,-0.176 0.626,-0.248 0.859,-0.352 0.134,-0.114 0.105,-0.235 0.232,-0.527 1.877,-0.829 2.473,-2.518 3.209,-3.923 0.067,-0.385 -0.149,-0.978 0.364,-0.998 -0.1,-2.198 0.621,-4.167 0.195,-6.456 -1.138,-2.231 -2.526,-4.874 -5.249,-6.032 -0.325,-0.137 -0.793,-0.103 -1.198,-0.25 -1.413,-0.51 -3.759,-1.442 -5.277,-1.388 -0.801,0.028 -1.767,0.542 -2.647,0.698 -2.139,0.38 -6.257,2.723 -7.218,5.257 -0.281,0.742 -0.458,1.875 -0.687,2.767 -0.384,1.489 -0.907,3.34 -0.16,5.113 0.892,2.115 2.553,3.403 3.882,5.48 1.453,1.018 3.036,1.365 4.7,2.243 1.313,-0.175 1.895,0.616 3.182,0.719 2.107,-0.965 4.408,-0.455 5.813,-2.351"
         style="fill:#000000;fill-opacity:1;fill-rule:evenodd;stroke:none;stroke-width:0.1"
         id="path5604" />
      <path
         d="m 172.254,774.029 c -0.138,-0.75 -1.415,-1.846 -1.282,-2.979 -0.101,0.056 -0.201,0.113 -0.301,0.169 -0.29,-0.723 -1.507,-2.136 -1.735,-3.781 1.988,-0.483 4.189,-1.251 6.285,-2.219 0.252,-0.155 -0.076,-0.473 0.175,-0.628 0.492,-0.142 1.035,-0.475 1.387,-0.12 0.616,-0.78 0.331,-1.608 0.801,-2.567 -1.203,-2.175 -0.404,-4.715 -2.42,-6.171 -0.273,-1.289 0.795,-2.202 1.491,-3.22 0.409,0.308 0.574,0.115 1.085,0.05 1.33,-0.171 2.612,0.572 3.789,-0.549 -0.068,-0.845 2.085,-1.607 2.27,-2.072 -0.008,0.02 0.517,-0.4 0.545,-0.44 0.322,-0.459 0.275,-0.873 0.664,-1.167 0.52,-0.392 1,-0.513 1.675,-0.547 0.395,-0.199 -0.01,-0.102 -0.07,-0.358 1.217,-1.899 2.582,-3.233 4.17,-4.332 -0.212,-0.312 0.269,-0.432 0.118,-0.727 2.847,-1.259 3.504,-6.102 6.859,-5.187 0.103,0.083 0.682,-0.078 0.559,-0.182 2.884,0.967 5.838,2.971 9.224,2.997 1.716,-0.733 1.832,-1.912 2.432,-2.956 -0.135,-0.376 -0.34,-0.772 0.107,-0.985 -2.418,-3.393 -6.582,-2.503 -10.141,-2.747 -0.181,-0.581 -0.859,-0.601 -1.136,-1.078 -0.199,-0.341 0.129,-0.294 0.074,-0.571 -0.063,-0.326 -0.648,-0.479 -0.352,-0.859 0.313,-0.409 0.553,-0.551 0.565,-1.111 0.499,-0.312 0.882,-0.656 0.977,-1.079 2.852,-1.666 5.844,-1.397 8.056,0.219 1.592,0.049 2.875,1.207 4.098,2.582 2.202,1.198 4.351,2.586 6.71,3.225 1.413,-0.235 2.691,0.556 4.009,0.782 1.173,0.2 2.423,-0.012 3.526,0.393 1.575,0.578 2.702,1.783 4.443,2.255 0.882,1.594 3.193,2.015 3.962,3.981 0.179,0.265 0.479,0.104 0.684,0.275 0.093,0.591 0.769,0.656 0.666,0.946 1.795,0.053 3.721,2.202 5.654,2.763 1.274,1.394 2.777,1.968 4.432,1.998 0.822,-0.636 2.14,-0.604 2.752,-1.684 0.265,-0.467 -0.117,-1.262 0.494,-1.467 -0.462,-0.159 -0.324,-0.955 -0.578,-1.261 -0.666,-0.804 -1.651,-1.893 -2.656,-2.602 -0.883,-0.622 -2.171,-0.837 -3.219,-1.491 -2.088,-1.3 -4.416,-2.709 -6.678,-3.639 -0.524,-0.216 -1.5,-0.17 -1.581,-0.695 -0.861,-0.223 -2.051,-0.629 -2.404,-1.686 -0.4,0.274 -0.256,-0.287 -0.384,-0.446 -0.07,0.065 -0.042,0.158 -0.143,0.214 -0.162,-0.355 -0.336,-0.714 -0.308,-1.016 -0.22,-0.259 -0.071,0.241 -0.245,0.27 -0.446,-0.944 -2.097,-2.225 -3.064,-3.561 -1.129,-0.238 -2.759,-2.375 -2.393,-3.543 0.436,-0.148 0.678,0.397 1.141,0.149 -1.764,-1.527 -1.261,-3.803 0.543,-4.668 1.332,-0.638 2.957,-0.226 4.103,-0.461 0.15,-0.549 1.202,-0.909 1.309,-1.663 0.02,-1.399 -1.215,-2.95 -1.859,-4.24 -0.22,-0.259 -0.071,0.242 -0.245,0.271 -2.71,-3.65 -5.692,-5.915 -9.56,-6.643 -2.752,-4.34 -7.516,-12.916 -2.414,-16.486 2.395,-1.677 7.072,-2.083 9.465,-1.5 1.486,-0.375 2.731,0.11 4.172,-0.104 4.811,0.736 9.189,3.026 14.049,3.584 0.898,-0.486 1.668,-0.52 2.359,-0.271 0.108,-0.082 0.191,-0.078 0.257,-0.013 0.234,-0.075 0.227,-0.218 0.345,-0.326 2.056,-1.149 3.96,-0.161 5.829,0.021 1.633,0.159 3.319,-0.11 4.943,-0.142 0.987,-0.02 1.989,0.292 2.929,-0.197 0.195,-0.09 0.253,0.305 0.427,0.289 0.037,-0.352 0.068,-0.181 0.446,-0.384 -0.509,-1.429 -2.14,-1.194 -3.22,-1.491 -3.256,-0.895 -6.823,-1.776 -10.215,-2.175 -1.881,-1.237 -3.897,-1.989 -5.78,-3.22 -5.694,-0.607 -11.523,-0.723 -17.147,-1.575 -1.185,-0.932 -3.075,-1.596 -4.156,-2.682 -1.759,-1.769 0.391,-3.676 1.546,-5.234 -0.259,-0.762 0.404,-1.172 0.695,-1.581 -1.357,-0.74 -2.409,-0.945 -3.369,-0.349 -1.117,0.694 -2.709,2.588 -4.095,1.647 -1.177,-0.798 -1.711,-3.024 -1.504,-4.309 0.254,-1.561 1.689,-3.231 2.884,-4.268 0.467,-0.406 0.158,-1.002 0.865,-1.281 0.184,-1.537 2.623,-3.011 4.212,-4.488 0.579,-0.538 2.603,-1.219 3.493,-1.307 1.023,-0.478 2.256,-1.29 3.468,-1.823 0.043,-0.018 0.444,0.016 0.515,-0.025 0.666,-0.392 1.15,-1.242 1.724,-1.633 0.275,-0.186 1.248,-0.427 1.793,-1.274 2.658,-0.845 6.235,-3.398 8.755,-4.405 0.102,-0.172 -0.112,-0.134 -0.125,-0.457 1.256,-0.565 2.166,0.115 3.299,-0.01 1.008,1.008 2.458,2.787 4.036,3.41 2.156,0.852 6.668,0.827 9.43,-0.157 1.191,-0.424 2.685,-1.374 3.857,-2.306 1.507,-1.198 1.737,-3.485 1.859,-5.146 0.068,-0.926 0.286,-1.729 -0.127,-2.571 -0.678,-1.38 -1.547,-2.002 -2.211,-2.985 -0.577,-0.856 -1.336,-2.325 -2.481,-3.229 -0.342,-0.27 -1.017,-0.526 -1.537,-0.852 -2.61,-1.635 -6.8,-2.451 -9.907,-1.16 -3.13,1.301 -3.156,2.72 -3.974,5.147 -0.483,1.435 -1.101,2.981 -0.856,4.581 -3.255,1.997 -6.157,4.533 -9.494,6.143 -1.028,0.496 -2.909,1.162 -3.542,2.393 -1.913,0.687 -2.918,1.714 -4.83,2.456 -0.133,0.114 -0.104,0.236 -0.231,0.527 -2.695,1.376 -5.496,2.514 -6.798,4.36 -0.094,-0.203 -0.252,-0.042 -0.571,-0.075 -1.508,1.276 -3.472,1.804 -4.56,0.587 -0.307,-0.01 -0.688,0.242 -0.885,-0.163 0.156,-0.765 -0.213,-1.924 0.099,-2.171 -0.597,0.098 -0.249,-0.666 -0.954,-0.52 -0.297,-0.365 0.284,-0.484 0.062,-0.828 -0.309,0.099 -0.622,0.21 -0.785,-0.219 0.088,-0.877 0.995,-1.527 1.486,-2.291 -0.052,-0.578 -0.084,-1.151 0.438,-1.569 -0.128,-0.343 -0.495,-0.07 -0.383,-0.445 0.121,-0.461 0.316,0.153 0.615,-0.082 -0.263,-1.722 -0.262,-2.524 -0.473,-4.36 -0.611,-0.194 -0.795,-0.241 -1.181,-0.921 -1.822,-0.072 -3.124,-0.132 -4.913,-0.272 -1.064,-1.206 -2.281,-2.276 -3.076,-3.819 -1.863,-3.612 2.686,-5.285 4.316,-7.588 -0.197,0.279 0.208,-0.452 0.232,-0.527 0.201,-0.625 -0.231,-1.18 0.168,-1.813 -0.731,-0.807 -1.144,-2.047 -2.272,-2.156 -1.861,-0.18 -4.502,2.525 -4.553,3.886 -0.921,0.692 -1.571,2.109 -2.845,2.926 -1.749,1.12 -4.84,0.948 -5.672,0.023 -0.543,-0.605 -0.363,-1.476 -0.686,-2.39 -1.069,0.018 -0.655,-1.776 0.325,-1.77 -0.587,-1.826 0.842,-3.091 0.43,-4.868 0.077,-0.302 0.349,-0.239 0.602,-0.339 -0.508,-0.343 0.326,-0.956 -0.233,-1.587 0.126,-0.05 0.166,-0.123 0.144,-0.214 0.475,-0.819 0.721,-1.37 1.698,-2.147 1.67,-1.327 2.333,-3.357 3.629,-4.821 -0.013,-1.952 2.905,-2.697 4.997,-4.269 0.206,-0.155 0.236,-0.449 0.433,-0.641 0.972,-0.945 2.291,-1.393 3.041,-2.11 1.005,-0.961 1.305,-2.257 1.691,-3.332 -0.378,0.142 -0.78,0.371 -1.028,0.05 -0.285,-0.557 0.556,-0.802 1.077,-1.135 -0.511,-2.72 -2.698,-3.541 -4.908,-3.315 -7.096,2.834 -8.735,7.705 -11.943,11.884 0.103,0.254 -0.243,0.383 -0.018,0.671 -1.27,1.112 -1.279,2.575 -2.551,3.685 -0.869,3.252 -3.069,6.133 -4.598,9.2 -1.134,1.231 -3.613,1.742 -4.119,3.247 -1.688,0.845 -2.174,2.99 -4.037,3.862 -2.267,1.06 -4.992,1.658 -7.558,2.54 -2.265,0.779 -6.272,0.934 -7.204,-1.757 -0.077,-0.225 0.098,-0.396 0.075,-0.572 -0.05,-0.379 -0.556,-0.666 -0.051,-1.029 -0.615,-0.348 -1.682,-0.007 -2.497,-0.444 -0.934,-1.034 -1.258,-2.218 -1.295,-3.236 -0.239,0.357 0.145,0.886 -0.407,1.156 -0.685,-0.165 -0.761,-1.469 0.068,-1.758 0.516,-0.097 -0.122,0.795 0.383,0.445 -0.201,-0.732 -0.644,-1.532 0.055,-2.013 -0.118,-0.184 -0.371,0.117 -0.471,-0.131 0.079,-0.166 0.845,-0.211 1.174,-0.265 0.014,-0.522 -1.388,-0.2 -1.387,0.12 -0.95,-0.536 -1.9,-1.071 -2.818,-1.716 -0.658,-2.628 -3.799,-4.292 -5.118,-6.502 -0.956,-0.009 -1.67,-0.884 -2.448,-1.53 -0.374,-1.654 1.635,-1.586 2.853,-1.74 2.895,-0.364 6.918,-1.659 8.541,-4.548 0.426,-0.757 0.331,-1.715 0.544,-2.554 0.33,-1.287 1.198,-2.001 2.006,-3.245 0.24,-0.061 0.486,0.105 0.558,-0.182 -2.674,0.709 -1.853,-3.772 -0.643,-4.661 -0.028,-1.603 0.2,-3.024 -0.073,-4.586 -0.183,-1.044 -0.566,-2.057 -0.366,-3.231 0.321,-1.884 1.326,-3.024 0.874,-5.252 -0.433,-2.131 -0.739,-4.384 -1.034,-6.292 -0.05,-0.325 -0.262,-0.679 -0.307,-1.015 -0.162,-1.192 0.15,-2.519 -0.078,-3.658 -0.261,-1.297 -1.277,-2.509 -1.176,-3.964 1.145,-3.71 3.139,-7.183 5.092,-10.669 -1.542,-1.96 2.818,-4.149 1.219,-5.578 0.002,-1.07 0.991,-1.865 1.146,-2.893 1.269,-0.727 0.56,-2.558 1.522,-3.633 1.42,-0.087 1.6,-1.164 1.799,-2.203 2.158,-1.084 2.753,-3.275 2.888,-5.198 -0.408,-0.357 -0.728,-1.029 -1.105,-1.492 -3.462,-0.217 -4.072,2.683 -5.486,4.809 -1.085,1.631 -2.705,3.345 -3.258,5.01 -0.174,0.519 -0.109,1.191 -0.282,1.612 -1.222,2.978 -4.019,4.473 -5.001,7.313 -2.018,3.777 -4.482,7.429 -5.098,11.597 -0.943,1.71 -1.662,3.482 -1.062,5.623 0.142,2.555 -1.652,4.683 -2.115,7.272 -0.73,0.754 -1.087,1.613 -1.216,2.535 -0.275,0.177 -0.314,0.42 -0.588,0.596 -0.091,2.089 -1.285,3.87 -2.349,5.686 -1.776,1.055 -3.323,3.063 -5.229,4.798 -1.142,1.039 -2.613,1.842 -3.674,2.863 -0.658,0.632 -1.816,2.134 -2.841,1.996 -0.961,1.743 -2.913,0.64 -4.22,1.19 -0.911,0.382 -1.508,1.444 -2.427,2.028 -1.163,0.739 -2.461,0.747 -3.681,1.678 -0.388,0.399 -0.239,0.948 -0.865,1.281 -0.914,2.637 3.03,5.489 2.019,8.511 1.692,1.843 0.996,4.283 -1.376,5.535 0.175,1.3 -1.179,2.897 -2.374,3.057 -0.541,0.159 0.198,0.675 -0.164,0.884 -0.336,0.299 -0.508,0.006 -0.727,-0.119 0.024,0.605 -0.682,0.865 -1.034,0.98 -0.63,0.562 -0.822,1.006 -1.637,1.319 0.362,0.298 -0.438,0.272 -0.075,0.57 -1.868,0.892 -2.655,2.808 -4.024,4.119 0.015,0.737 -0.537,1.315 -1.04,1.908 -0.02,1.207 -0.361,2.323 -1.02,3.352 0.714,0.579 -0.236,1.517 0.503,1.83 -0.245,0.214 -0.174,0.516 -0.533,0.697 0.551,1.38 0.46,2.366 0.292,3.802 0.45,0.342 0.539,1.031 0.39,1.631 -1.611,1.019 -1.778,3.165 -3.284,4.495 -1.853,0.907 -3.268,0.672 -4.725,-0.643 -0.454,-0.41 -1.024,-1.201 -1.275,-1.794 -0.226,-0.534 -0.029,-1.148 -0.19,-1.743 -0.485,-1.806 -2.307,-2.784 -2.719,-3.889 -0.841,-0.217 -1.578,-0.808 -2.3786,-1.171 -0.3864,-1.031 -0.5961,-1.436 -1.3129,-2.565 -0.5543,-0.235 -1.1676,-0.259 -1.6383,-0.795 -0.159,-0.383 0.2793,-0.598 -0.0508,-1.029 -0.85,-0.048 -0.6234,1.011 -0.8519,1.538 -0.3414,0.786 -0.909,1.594 -0.8012,2.566 0.4129,0.928 0.5059,1.526 0.8859,2.277 0.6446,0.014 1.2469,0.18 1.8266,0.425 1.1781,2.233 0.6195,5.332 -2.193,3.616 -0.659,-0.402 -1.3351,-0.979 -2.1343,-1.442 -0.709,-0.41 -1.6575,-0.674 -2.1653,-1.028 -0.3656,-0.253 -0.6312,-0.946 -1.0926,-1.234 -0.1679,-0.106 -0.4375,0.011 -0.5714,-0.075 -1.6766,-1.088 -4.1348,-3.407 -5.5649,-0.963 -2.7117,1.265 -0.5723,3.742 0.9824,5.264 0.986,0.964 2.1243,2.426 3.0391,3.046 0.2168,0.147 0.6289,0.109 0.941,0.263 0.3699,0.184 0.6781,0.647 0.9668,0.778 0.2137,0.096 0.5758,-0.107 0.7715,-0.039 0.7832,0.271 1.2695,0.842 1.8074,1.096 -0.0031,0.127 -0.1926,0.31 0.0133,0.258 -1.0621,0.919 -3.9199,1.687 -5.475,2.953 -0.0387,0.242 -0.0766,0.486 0.1953,0.816 -2.8266,2.09 -7.4094,4.4 -10.6246,4.135 -0.2703,-0.455 -1.1141,-0.438 -1.0801,-0.978 -2.7828,-0.491 -4.6875,-2.28 -7.4551,-2.673 -1.25,-0.772 -2.471,-1.646 -3.9039,-1.767 -0.9113,-0.773 -1.7777,-1.706 -2.8304,-1.974 -0.1364,-0.421 -0.3926,-0.41 -0.5528,-0.746 -0.2422,0.255 -0.2738,0.323 -0.5582,0.183 -0.0457,-0.154 0.2047,-0.225 0.3453,-0.327 -0.2097,-1.936 -2.3128,-3.615 -3.9871,-4.495 -0.957,-0.503 -2.0379,-1.338 -2.7675,-0.688 -1.2926,1.15 1.2972,2.421 1.3078,3.494 1.1914,1.82 3.234,2.312 5.0398,2.844 2.0496,2.852 4.9406,2.695 7.1113,5.114 1.8829,0.474 2.9606,1.957 4.595,3.228 0.7097,1.305 1.4746,1.437 2.1289,2.369 -0.0516,0.746 -0.1137,1.49 -0.6703,2.096 -2.8282,1.208 -5.3774,1.905 -6.584,4.503 -0.2196,0.474 -0.5438,1.712 -0.7446,2.667 -0.2105,1.004 0.0829,1.933 -0.0601,2.943 0.7664,1.397 1.0082,2.648 1.1195,3.863 -0.075,0.27 -0.4777,0.075 -0.232,0.527 -1.5141,1.298 -3.2043,2.168 -5.2043,3.197 -1.4367,0.74 -2.7949,1.955 -3.8,2.406 -1.3449,0.604 -3.1067,0.3 -4.7055,0.8 -1.1199,0.352 -2.1558,0.874 -3.3484,1.094 -1.434,0.266 -2.6578,0.139 -3.8199,0.963 -0.3727,1.05 0.0875,1.843 1.0554,2.578 1.3828,0.556 2.8758,-0.575 3.9641,-1.177 1.6754,-0.925 4.0766,-0.495 5.8086,-1.421 0.1789,-0.096 0.1426,-0.252 0.3441,-0.327 0.9328,-0.347 2.3696,-0.238 3.5758,-0.692 1.3719,-0.518 2.5391,-1.438 3.725,-1.835 1.5094,-0.506 3.375,-0.781 4.8434,-0.086 0.6968,1.62 2.6492,2.406 3.566,3.279 1.5125,-0.067 2.4789,1.821 3.9601,1.867 0.6606,0.865 1.5832,0.79 2.1598,1.956 0.5109,0.391 1.091,0.532 1.5063,1.266 0.1398,0.104 0.3945,-0.203 0.5144,-0.026 0.2547,0.647 -0.0273,1.805 0.9613,1.706 -0.1547,0.511 0.1129,0.631 0.2645,1.173 0.1297,0.459 -0.6602,0.661 -0.0938,1.241 -0.8789,1.785 -3.1429,3.182 -3.3019,5.167 0.8539,2.792 3.4219,2.811 5.1332,1.602 1.0219,0.173 2.85,0.011 3.0058,1.346 2.3403,-0.07 3.9313,1.477 6.1051,1.451 0.0492,0.456 -0.2808,-0.148 -0.4578,0.126 0.7758,0.222 0.4914,1.321 1.2313,1.95 0.1156,1.428 -0.0563,3.528 1.4457,4.209 1.0937,0.496 2.6656,-0.508 3.5828,0.493 0.4172,1.582 -0.3477,2.834 -0.9817,4.122 0.1825,0.054 0.3133,0.291 0.4395,0.546 -0.1387,0.299 -0.3926,0.567 -0.7336,0.81 0.0937,0.371 0.3781,0.061 0.5273,0.232 -0.3187,0.571 -1.3285,0.923 -1.8628,0.917 0.0058,0.327 0.0656,0.915 -0.4321,0.64 0.1735,0.423 0.3363,0.955 0.177,1.487 -0.4785,0.308 -0.7883,0.534 -0.8211,1.124 0.0691,0.358 0.3234,0.051 0.5137,-0.026 0.0183,0.256 -0.7719,1.263 -1.1036,0.622 0.0016,0.846 -1.1035,1.494 -1.2148,2.535 0.5105,0.237 1.0738,0.669 1.1418,0.15 0.975,0.055 0.5133,1.175 0.5914,1.518 0.2258,-0.335 0.1566,-0.358 0.6453,-0.497 -0.1742,-0.176 -0.4691,-0.162 -0.3828,-0.444 0.3836,-0.144 0.4887,0.491 0.5523,0.745 0.0981,-0.355 0.4149,0.053 0.6715,0.02 0.6293,1.005 3.0887,2.664 2.4188,4.057 0.6383,0.202 0.1222,1.127 1.048,1.391 -0.1922,0.099 0.0168,0.559 -0.2058,1.042 0.2164,0.205 0.7136,0.215 1.1546,0.407 -0.378,0.394 -0.002,0.495 -0.319,0.841 0.365,-0.482 0.648,1.084 1.224,0.764 -0.074,0.352 -0.051,0.248 -0.019,0.671 0.406,-0.384 0.88,0.216 1.211,0.507 -0.114,0.007 -0.229,0.014 -0.313,-0.087 -0.088,0.434 0.773,0.044 1.041,0.207 0.071,0.434 0.214,0.363 0.296,0.758 0.233,-0.075 0.226,-0.218 0.345,-0.326 0.199,0.154 0.186,0.538 0.395,0.702 0.035,0.027 0.478,0.142 0.471,0.131 0.366,0.499 0.395,1.249 0.861,1.763 0.829,0.913 1.826,1.178 2.83,1.974 2.592,-0.25 4.665,1.08 7.171,0.057 -0.202,0.386 0.397,0.041 0.17,0.302 0.422,0.005 0.911,-0.235 1.33,-0.222 0.974,0.751 2.005,1.258 3.037,0.933 0.35,0.048 -0.154,0.43 -0.132,0.471 0.46,0.326 1.232,-0.008 1.732,-0.447 0.25,0.13 0.209,0.438 0.357,-0.069 0.872,0.257 1.393,0.642 2.153,0.77 0.218,-0.312 0.387,-0.11 0.545,-0.44 1.783,-0.228 3.512,-0.261 5.332,-0.624 1.359,-0.763 2.438,-0.727 3.601,-0.179 0.506,-0.4 0.776,0.046 1.229,-0.164 0.031,0.216 0.065,0.373 0.227,0.401 0.259,-0.041 0.172,-0.614 0.847,-0.609 0.018,-0.164 -0.02,-0.344 -0.183,-0.558 2.695,-1.732 5.267,0.966 7.128,2.328 -0.046,0.732 0.24,1.032 0.347,1.789 1.615,0.205 2.298,2.881 3.892,3.623 2.758,2.891 -0.254,4.514 -1.965,6.131 0.262,0.667 0.11,1.867 -0.857,2.465 -0.323,1.693 -1.385,2.851 -2.068,4.074 -0.005,-0.115 -0.013,-0.229 0.088,-0.314 -0.447,0.552 -0.079,2.062 -1.102,2.736 -0.086,0.944 0.41,1.876 -0.118,2.842 0.527,0.22 0.532,1.26 0.347,1.788 0.624,1.176 1.047,2.359 0.649,3.732 0.24,0.319 0.658,0.874 0.522,1.16 2.498,0.744 4.636,2.773 7.135,3.515 0.466,0.902 0.649,1.455 1.332,1.893 0.531,-0.245 0.756,-0.995 1.222,-1.35 4.165,-3.169 7.007,2.691 10.585,2.364 0.347,-0.449 0.931,-0.829 1.11,-1.551 0.047,-0.192 -0.168,-0.41 -0.082,-0.614 0.303,-0.728 1.311,-1.93 1.817,-2.874 0.213,-0.4 0.195,-1.04 0.808,-1.381 0.558,-0.312 1.095,0.036 1.744,-0.19 0.952,0.524 1.676,1.872 2.687,2.187 -0.167,-0.308 -0.379,-0.459 -0.64,-0.432 0.544,-1.033 -0.275,-2.209 -0.624,-3.218 0.541,-1.025 0.836,-2.357 2.301,-2.486 1.43,-0.125 4.117,2.238 5.404,3.961 0.339,0.453 0.43,1.114 0.748,1.562 0.171,0.241 0.509,0.326 0.697,0.532 1.064,1.171 1.868,2.611 2.939,3.103 0.579,-1.194 -0.306,-2.525 -0.706,-3.832 -0.233,0.024 -0.479,0.099 -0.672,-0.018 -0.377,-0.529 -0.482,-0.981 -0.534,-1.419 -2.258,-1.743 -3.726,-3.118 -5.468,-5.246 0.202,-1.56 -1.023,-2.909 -2.337,-3.443 -0.027,0.129 0.325,0.581 -0.062,0.829 z m -9.143,-163.792 c -0.107,-0.118 -0.251,-0.112 -0.326,-0.345 0.202,-0.084 0.157,-0.238 0.344,-0.326 0.182,0.275 0.322,0.54 -0.018,0.671 z m -1.913,-33.425 c -0.757,-0.493 -0.335,-1.662 0.325,-1.769 0.243,0.687 0.256,1.312 -0.325,1.769 z m 6.413,204.46 c 0.478,-0.1 1.069,-0.603 1.386,-0.12 -0.49,0.142 -1.034,0.475 -1.386,0.12 z m 3.266,-3.823 c 0.3,-0.357 1.243,-0.701 1.587,-0.233 -0.596,0.315 -1.096,0.293 -1.587,0.233 z m -20.151,8.578 c 0.567,-0.213 1.211,-0.703 1.587,-0.233 -0.579,0.254 -1.137,0.44 -1.587,0.233 z m 18.497,-21.13 c 1.875,-1.059 3.474,-1.133 4.831,-0.343 -1.698,0.429 -3.394,0.851 -4.831,0.343 z m 58.08,-44.493 c 0.501,-0.076 1.072,-0.408 1.443,-0.019 -0.499,0.071 -1.044,0.308 -1.443,0.019 z m 4.169,-4.331 c 0.231,-0.288 0.67,0.179 0.483,0.388 -0.214,-0.069 -0.6,0.006 -0.483,-0.388 z M 213.33,701.707 c 0.454,-0.208 0.838,-0.173 1.23,-0.164 0.474,0.61 0.752,1.23 0.661,1.875 -1.07,0.97 -1.759,-0.676 -1.891,-1.711 z m 7.934,-12.666 c 1.4,-0.857 3.061,-0.076 4.617,-0.486 0.006,0.49 0.802,0.323 0.339,0.602 -1.681,0.064 -3.456,0.464 -4.956,-0.116 z m 1.345,-5.121 c -1.304,-0.436 -2.137,-1.889 -2.895,-3.259 0.617,-0.49 0.691,-1.537 1.567,-1.677 0.301,0.902 -0.519,1.49 -0.242,2.384 0.745,0.323 1.929,1.618 1.57,2.552 z m -8.268,-7.635 c 0.332,-0.281 0.527,-0.071 0.859,-0.351 0.253,0.205 0.467,0.547 0.665,0.946 -0.139,0.327 -0.336,0.639 -0.677,0.91 -0.449,-0.14 -0.961,-1.047 -0.847,-1.505 z m 40.591,-24.854 c 0.695,-0.736 1.795,-0.679 2.415,-0.172 -0.388,0.703 -1.865,0.825 -2.415,0.172 z m -119.371,64.751 c 0.516,-0.133 1.117,-0.568 1.486,-0.178 -0.538,0.212 -1.104,0.523 -1.486,0.178 z m 123.677,-70.483 c 0.385,-0.476 1.434,-0.968 1.7,-0.032 -0.427,0.469 -1.396,0.937 -1.7,0.032 z m -124.129,69.68 c 0.472,-0.178 0.992,-0.526 1.329,-0.221 -0.459,0.131 -0.922,0.276 -1.329,0.221 z m 2.05,-1.288 c -0.134,0.075 -0.268,0.151 -0.402,0.227 -0.296,-0.342 0.263,-0.658 0.402,-0.227 z m 0.423,-3.939 c 0.076,0.133 0.151,0.266 0.227,0.4 -0.134,0.076 -0.268,0.151 -0.402,0.227 -0.272,-0.302 -0.214,-0.511 0.175,-0.627 z M 87.8242,682.138 c 0.5438,-0.029 1.2481,-0.633 1.6434,-0.132 -0.5613,0.094 -1.2746,0.73 -1.6434,0.132 z m 61.7448,-60.04 c 0.538,0.072 0.701,0.882 0.108,1.129 -0.472,-0.388 -0.372,-0.742 -0.108,-1.129 z m 0.035,-3.457 c 1.771,-1.184 4.101,-1.777 5.533,-0.738 -1.996,0.786 -3.923,1.332 -5.533,0.738 z m 12.555,-23.467 c -0.872,1.508 -0.669,3.537 -0.247,5.428 -0.182,0.436 -0.584,1.746 -1.279,1.249 -0.398,-0.812 0.171,-1.614 0.187,-2.485 0.041,-2.313 -0.345,-4.821 2.066,-6.187 0.755,0.898 -0.39,1.413 -0.727,1.995 z M 58.6773,656.921 c 0.1497,0.17 0.4329,-0.139 0.527,0.233 -0.2359,0.305 -0.7301,0.035 -0.527,-0.233"
         style="fill:#000000;fill-opacity:1;fill-rule:evenodd;stroke:none;stroke-width:0.1"
         id="path5606" />
      <path
         d="m 173.084,785.59 c -0.532,0.23 -0.57,-1.25 -1.437,-0.908 0.139,0.634 0.337,2.094 1.231,1.95 0.435,-0.273 0.118,-0.756 0.307,-1.098 -0.083,-0.103 -0.132,10e-4 -0.101,0.056"
         style="fill:#000000;fill-opacity:1;fill-rule:evenodd;stroke:none;stroke-width:0.1"
         id="path5608" />
      <path
         d="m 227.231,741.861 c 1.275,1.502 3.636,1.708 5.385,2.517 0.313,-0.081 -0.339,-0.432 -0.025,-0.514 -0.535,-0.091 -1.155,-0.006 -1.569,-0.438 -0.152,-0.157 -0.033,-0.612 -0.138,-0.715 -0.927,-0.91 -2.269,-0.605 -3.653,-0.85"
         style="fill:#000000;fill-opacity:1;fill-rule:evenodd;stroke:none;stroke-width:0.1"
         id="path5610" />
      <path
         d="m 283.54,694.929 c 1.792,0.412 3.835,0.225 5.81,0.692 2.044,0.484 4.017,1.617 6.263,1.495 0.739,-0.04 1.434,-0.457 2.145,-0.415 1.334,0.078 3.238,1.824 4.486,-0.016 -0.914,-1.883 -3.021,-0.365 -4.424,-0.812 -0.692,-0.221 -1.411,-0.567 -2.152,-0.771 -3.338,-0.917 -7.07,0.431 -10.397,-0.619 -0.859,0.494 -0.897,-0.096 -1.731,0.446 z m 11.564,1.284 c -0.197,-0.379 0.003,-0.334 0.288,-0.427 0.057,0.101 0.113,0.201 0.169,0.302 -0.177,0.129 -0.284,0.012 -0.457,0.125"
         style="fill:#000000;fill-opacity:1;fill-rule:evenodd;stroke:none;stroke-width:0.1"
         id="path5612" />
      <path
         d="m 221.438,736.269 c 0.183,-0.446 -0.721,-0.917 -1.182,-0.922 0.331,0.721 1.036,0.367 1.182,0.922"
         style="fill:#000000;fill-opacity:1;fill-rule:evenodd;stroke:none;stroke-width:0.1"
         id="path5614" />
      <path
         d="m 165.013,636.133 c 0.173,0.137 0.19,-0.088 0.3,-0.17 0.1,-0.052 0.148,0.079 0.214,0.144 0.194,-0.199 0.08,-0.484 0.275,-0.684 -0.13,-0.058 -0.557,0.516 -0.789,0.71"
         style="fill:#000000;fill-opacity:1;fill-rule:evenodd;stroke:none;stroke-width:0.1"
         id="path5616" />
      <path
         d="m 167.125,634.017 c 0.298,-0.242 0.344,-0.679 0.633,-0.753 0.337,-0.225 -0.431,-0.343 -0.125,-0.458 -0.135,0.045 -1.027,0.976 -0.508,1.211"
         style="fill:#000000;fill-opacity:1;fill-rule:evenodd;stroke:none;stroke-width:0.1"
         id="path5618" />
      <path
         d="m 180.099,616.924 c -0.14,-0.124 -0.108,0.053 -0.044,0.158 1.25,-1.305 3.002,-2.7 4.225,-4.232 -0.305,-0.243 -0.354,0.488 -0.614,0.082 -0.12,-0.146 -0.003,-0.227 -0.07,-0.358 0.314,-0.317 0.371,0.287 0.672,0.018 -0.813,-0.499 0.439,-0.95 0.023,-1.6 -2.198,1.938 -3.132,3.769 -4.192,5.932"
         style="fill:#000000;fill-opacity:1;fill-rule:evenodd;stroke:none;stroke-width:0.1"
         id="path5620" />
      <path
         d="m 175.379,596.582 c 4.455,-3.08 7.658,-7.638 9.696,-11.412 -3.497,3.069 -7.448,7.435 -9.696,11.412"
         style="fill:#000000;fill-opacity:1;fill-rule:evenodd;stroke:none;stroke-width:0.1"
         id="path5622" />
      <path
         d="m 185.809,584.359 c 1.282,-0.255 2.305,-1.912 3.002,-2.881 2.139,-1.516 2.498,-3.459 4.201,-4.746 -2.537,1.316 -5.518,5.014 -7.203,7.627"
         style="fill:#000000;fill-opacity:1;fill-rule:evenodd;stroke:none;stroke-width:0.1"
         id="path5624" />
      <path
         d="m 203.079,565.507 c 1.026,-0.072 0.811,-1.209 1.58,-1.419 -0.087,-0.095 -0.238,0.044 -0.314,-0.088 0.342,-0.135 0.938,-0.688 0.922,-1.179 -0.747,0.661 -1.573,1.628 -2.188,2.686"
         style="fill:#000000;fill-opacity:1;fill-rule:evenodd;stroke:none;stroke-width:0.1"
         id="path5626" />
      <path
         d="m 147.725,572.374 c -2.081,1.899 -1.523,4.535 -2.084,6.859 0.872,0.049 0.775,-1.397 1.272,-2.435 0.651,-1.359 1.912,-2.46 1.496,-4.148 -0.194,0.089 -0.253,-0.305 -0.426,-0.289 -0.108,0.083 -0.192,0.079 -0.258,0.013"
         style="fill:#000000;fill-opacity:1;fill-rule:evenodd;stroke:none;stroke-width:0.1"
         id="path5628" />
      <path
         d="m 189.291,796.288 c 0.133,-1.304 -1.652,-3.156 -2.92,-3.775 0.093,1.589 1.315,4.046 2.92,3.775"
         style="fill:#000000;fill-opacity:1;fill-rule:evenodd;stroke:none;stroke-width:0.1"
         id="path5630" />
      <path
         d="m 63.0738,638.448 c -0.4062,-0.981 -0.5363,-2.187 -1.4386,-3.022 -0.8407,-0.778 -2.8989,-1.081 -3.7969,-0.637 -1.3981,0.69 -1.7289,2.404 -1.6781,3.589 0.8984,1.727 1.9675,2.844 3.2519,3.191 2.1,-0.099 3.2274,-1.612 3.6617,-3.121 z m -2.4843,-0.186 c 0.1046,-0.28 0.1328,-0.063 0.4007,-0.226 0.2969,0.341 -0.2629,0.657 -0.4007,0.226"
         style="fill:#000000;fill-opacity:1;fill-rule:evenodd;stroke:none;stroke-width:0.1"
         id="path5632" />
      <path
         d="m 300.906,620.135 c 0.379,0.076 0.392,-0.383 0.219,-0.547 -0.088,0.058 -0.177,0.114 -0.328,0.11 -0.014,0.196 0.134,0.23 0.109,0.437"
         style="fill:#000000;fill-opacity:1;fill-rule:evenodd;stroke:none;stroke-width:0.1"
         id="path5778" />
      <path
         d="m 300.142,609.97 c 0.271,0.018 0.338,-0.172 0.546,-0.218 -0.013,-0.315 0.06,-0.716 -0.109,-0.875 -0.266,0.28 -0.653,0.649 -0.437,1.093"
         style="fill:#000000;fill-opacity:1;fill-rule:evenodd;stroke:none;stroke-width:0.1"
         id="path5786" />
      <path
         d="m 299.813,606.145 c 0.11,0 0.219,0 0.329,0 -0.06,-0.159 0.127,-0.565 -0.11,-0.547 -0.367,-0.112 -0.17,0.34 -0.219,0.547"
         style="fill:#000000;fill-opacity:1;fill-rule:evenodd;stroke:none;stroke-width:0.1"
         id="path5792" />
      <path
         d="m 290.742,603.084 c -0.315,1.101 0.504,1.811 1.093,1.203 0.709,-0.732 -0.26,-2.212 -1.093,-1.203"
         style="fill:#000000;fill-opacity:1;fill-rule:evenodd;stroke:none;stroke-width:0.1"
         id="path5796" />
      <path
         d="m 257.734,596.199 c 0.022,-0.313 0.014,-0.597 -0.328,-0.547 0.014,0.196 -0.134,0.231 -0.109,0.437 0.098,0.085 0.247,0.118 0.437,0.11"
         style="fill:#000000;fill-opacity:1;fill-rule:evenodd;stroke:none;stroke-width:0.1"
         id="path5802" />
      <path
         d="m 277.408,589.422 c -0.048,-0.318 -0.494,-0.567 -0.765,-0.328 -0.016,0.374 0.598,0.804 0.765,0.328"
         style="fill:#000000;fill-opacity:1;fill-rule:evenodd;stroke:none;stroke-width:0.1"
         id="path5808" />
      <path
         d="m 239.154,585.816 c 0.427,-0.01 0.74,-0.134 0.655,-0.656 -0.067,-0.152 -0.42,-0.017 -0.437,-0.219 -0.284,0.082 -0.447,0.614 -0.218,0.875"
         style="fill:#000000;fill-opacity:1;fill-rule:evenodd;stroke:none;stroke-width:0.1"
         id="path5818" />
      <path
         d="m 260.576,582.427 c 0.285,0.03 0.547,0.037 0.437,-0.327 -0.286,-0.032 -0.47,0.039 -0.437,0.327"
         style="fill:#000000;fill-opacity:1;fill-rule:evenodd;stroke:none;stroke-width:0.1"
         id="path5830" />
      <path
         d="m 276.096,582.318 c 0.337,0.082 0.21,-0.3 0.547,-0.218 0.258,-1.387 2.47,-1.384 1.967,-3.17 -1.862,0.032 -1.552,2.237 -2.733,2.951 -0.079,0.298 0.218,0.22 0.219,0.437"
         style="fill:#000000;fill-opacity:1;fill-rule:evenodd;stroke:none;stroke-width:0.1"
         id="path5832" />
      <path
         d="m 297.3,579.804 c 0.551,-0.07 1.183,-0.718 0.655,-1.202 -0.236,0.382 -0.684,0.554 -0.655,1.202"
         style="fill:#000000;fill-opacity:1;fill-rule:evenodd;stroke:none;stroke-width:0.1"
         id="path5836" />
      <path
         d="m 239.263,578.602 c 0.481,0.043 0.74,-0.134 0.765,-0.547 -0.387,-0.307 -0.843,0.047 -0.765,0.547"
         style="fill:#000000;fill-opacity:1;fill-rule:evenodd;stroke:none;stroke-width:0.1"
         id="path5842" />
      <path
         d="m 280.359,576.307 c 0.278,-0.014 0.424,-0.159 0.437,-0.437 -0.146,0 -0.292,0 -0.437,0 0,0.145 0,0.291 0,0.437"
         style="fill:#000000;fill-opacity:1;fill-rule:evenodd;stroke:none;stroke-width:0.1"
         id="path5848" />
      <path
         d="m 287.572,575.214 c 0.176,-0.262 0.36,-0.515 0.328,-0.984 -0.097,-0.048 -0.195,-0.096 -0.218,-0.219 -1.046,-0.204 -1.353,1.433 -0.11,1.203"
         style="fill:#000000;fill-opacity:1;fill-rule:evenodd;stroke:none;stroke-width:0.1"
         id="path5856" />
      <path
         d="m 262.762,574.777 c 0.43,0.066 0.567,-0.161 0.765,-0.328 0.035,-0.254 -0.018,-0.42 -0.109,-0.547 -0.506,0.005 -0.71,0.311 -0.656,0.875"
         style="fill:#000000;fill-opacity:1;fill-rule:evenodd;stroke:none;stroke-width:0.1"
         id="path5860" />
      <path
         d="m 263.527,572.918 c 0.182,0 0.364,0 0.546,0 0.081,-0.434 0.081,-0.439 0,-0.874 -0.625,-0.03 -0.666,0.423 -0.546,0.874"
         style="fill:#000000;fill-opacity:1;fill-rule:evenodd;stroke:none;stroke-width:0.1"
         id="path5866" />
      <path
         d="m 305.388,572.263 c 0.415,-0.003 0.398,-0.57 -0.109,-0.437 -0.047,0.228 0.074,0.289 0.109,0.437"
         style="fill:#000000;fill-opacity:1;fill-rule:evenodd;stroke:none;stroke-width:0.1"
         id="path5868" />
      <path
         d="m 255.111,572.154 c 0.146,0 0.291,0 0.437,0 0.098,-0.509 -0.579,-0.561 -0.437,0"
         style="fill:#000000;fill-opacity:1;fill-rule:evenodd;stroke:none;stroke-width:0.1"
         id="path5872" />
      <path
         d="m 291.725,568.875 c -1.422,2.925 3.043,0.359 0,0 v 0"
         style="fill:#000000;fill-opacity:1;fill-rule:evenodd;stroke:none;stroke-width:0.1"
         id="path5876" />
      <path
         d="m 275.331,570.077 c 0.349,-0.416 0.736,-0.794 0.656,-1.639 -0.157,-0.062 -0.267,-0.171 -0.328,-0.329 -1.636,-0.568 -2.279,2.384 -0.328,1.968"
         style="fill:#000000;fill-opacity:1;fill-rule:evenodd;stroke:none;stroke-width:0.1"
         id="path5880" />
      <path
         d="m 286.698,569.639 c 0.254,-0.537 0.578,-0.896 0.218,-1.53 -1.488,-0.593 -1.928,2.066 -0.218,1.53"
         style="fill:#000000;fill-opacity:1;fill-rule:evenodd;stroke:none;stroke-width:0.1"
         id="path5882" />
      <path
         d="m 267.352,566.798 c 0.73,-0.109 1.134,-0.543 1.312,-1.202 -0.53,-0.102 -1.389,0.339 -1.312,1.202"
         style="fill:#000000;fill-opacity:1;fill-rule:evenodd;stroke:none;stroke-width:0.1"
         id="path5886" />
      <path
         d="m 306.043,566.798 c 0.503,-0.554 1.317,-0.797 1.312,-1.858 -0.24,-0.124 -0.446,-0.282 -0.875,-0.219 -0.084,0.701 -0.861,1.224 -0.437,2.077"
         style="fill:#000000;fill-opacity:1;fill-rule:evenodd;stroke:none;stroke-width:0.1"
         id="path5888" />
      <path
         d="m 291.397,566.252 c -0.044,-0.264 0.2,-0.238 0.11,-0.547 -0.097,-0.049 -0.196,-0.096 -0.218,-0.219 -0.272,-0.017 -0.339,0.172 -0.547,0.219 -0.034,0.434 0.21,0.591 0.655,0.547"
         style="fill:#000000;fill-opacity:1;fill-rule:evenodd;stroke:none;stroke-width:0.1"
         id="path5890" />
      <path
         d="m 288.884,564.284 c -0.093,0.02 -0.103,-0.043 -0.109,-0.109 -1.504,-0.044 0.152,1.613 0.109,0.109"
         style="fill:#000000;fill-opacity:1;fill-rule:evenodd;stroke:none;stroke-width:0.1"
         id="path5894" />
      <path
         d="m 275.768,560.349 c -0.757,-0.017 -1.574,0.624 -1.53,1.749 0.998,1.004 2.539,-0.741 1.53,-1.749"
         style="fill:#000000;fill-opacity:1;fill-rule:evenodd;stroke:none;stroke-width:0.1"
         id="path5902" />
      <path
         d="m 247.242,562.207 c 0.898,-0.485 1.897,-0.871 2.186,-1.967 -1.201,0.002 -1.516,0.889 -2.296,1.312 -0.014,0.269 -0.016,0.526 0.11,0.655"
         style="fill:#000000;fill-opacity:1;fill-rule:evenodd;stroke:none;stroke-width:0.1"
         id="path5904" />
      <path
         d="m 277.735,560.896 c -2.597,1.188 1.74,1.649 0,0 v 0"
         style="fill:#000000;fill-opacity:1;fill-rule:evenodd;stroke:none;stroke-width:0.1"
         id="path5906" />
      <path
         d="m 256.422,560.459 c -0.127,0.018 -0.194,-0.024 -0.218,-0.11 -0.439,0.108 -0.67,0.423 -0.656,0.984 0.562,0.417 1.292,-0.312 0.874,-0.874"
         style="fill:#000000;fill-opacity:1;fill-rule:evenodd;stroke:none;stroke-width:0.1"
         id="path5912" />
      <path
         d="m 289.868,558.601 c 0.286,0.03 0.47,-0.04 0.437,-0.328 -0.205,-0.215 -0.526,-0.064 -0.437,0.328"
         style="fill:#000000;fill-opacity:1;fill-rule:evenodd;stroke:none;stroke-width:0.1"
         id="path5916" />
      <path
         d="m 307.027,555.431 c -0.394,-0.184 -0.78,0.119 -1.093,0.328 -0.339,2.073 2.33,0.824 1.093,-0.328"
         style="fill:#000000;fill-opacity:1;fill-rule:evenodd;stroke:none;stroke-width:0.1"
         id="path5926" />
      <path
         d="m 225.492,555.977 c 0.547,0.581 1.662,0.147 1.639,-0.436 -0.035,-0.873 -1.555,-0.495 -1.639,0.436"
         style="fill:#000000;fill-opacity:1;fill-rule:evenodd;stroke:none;stroke-width:0.1"
         id="path5930" />
      <path
         d="m 282.436,554.229 c 0.109,0 0.218,0 0.327,0 0.046,-0.229 -0.075,-0.29 -0.109,-0.438 -0.193,0.027 -0.249,0.189 -0.218,0.438"
         style="fill:#000000;fill-opacity:1;fill-rule:evenodd;stroke:none;stroke-width:0.1"
         id="path5936" />
      <path
         d="m 299.377,554.12 c 0.53,0.051 0.62,-0.457 0.327,-0.656 -0.235,0.093 -0.387,0.269 -0.327,0.656"
         style="fill:#000000;fill-opacity:1;fill-rule:evenodd;stroke:none;stroke-width:0.1"
         id="path5940" />
      <path
         d="m 265.822,553.791 c 0.324,-0.077 0.518,-0.283 0.547,-0.655 -0.533,-0.095 -0.689,0.186 -0.765,0.546 0.126,-0.018 0.194,0.024 0.218,0.109"
         style="fill:#000000;fill-opacity:1;fill-rule:evenodd;stroke:none;stroke-width:0.1"
         id="path5942" />
      <path
         d="m 288.119,553.027 c 0.187,-0.141 0.429,-0.227 0.437,-0.547 -0.352,-0.378 -0.74,0.27 -0.437,0.547"
         style="fill:#000000;fill-opacity:1;fill-rule:evenodd;stroke:none;stroke-width:0.1"
         id="path5944" />
      <path
         d="m 298.393,551.496 c 0.253,0.035 0.42,-0.017 0.546,-0.109 0,-0.146 0,-0.291 0,-0.437 -0.129,-0.126 -0.386,-0.124 -0.656,-0.11 -0.014,0.27 -0.016,0.527 0.11,0.656"
         style="fill:#000000;fill-opacity:1;fill-rule:evenodd;stroke:none;stroke-width:0.1"
         id="path5954" />
      <path
         d="m 299.813,549.42 c 0.511,0.109 0.611,-0.191 0.547,-0.656 -0.408,-0.044 -0.641,0.087 -0.656,0.437 0.107,0.003 0.085,0.134 0.109,0.219"
         style="fill:#000000;fill-opacity:1;fill-rule:evenodd;stroke:none;stroke-width:0.1"
         id="path5970" />
      <path
         d="m 288.775,548.655 c -0.075,-1.049 -1.23,-0.491 -0.984,0.218 0.33,0.316 0.818,0.182 0.984,-0.218"
         style="fill:#000000;fill-opacity:1;fill-rule:evenodd;stroke:none;stroke-width:0.1"
         id="path5974" />
      <path
         d="m 244.4,545.594 c 0.275,-0.026 0.453,-0.322 0.219,-0.546 -0.223,0.079 -0.447,0.329 -0.219,0.546"
         style="fill:#000000;fill-opacity:1;fill-rule:evenodd;stroke:none;stroke-width:0.1"
         id="path5994" />
      <path
         d="m 279.812,545.048 c 0.799,0.202 1.118,-0.693 0.656,-1.093 -0.511,-0.037 -0.644,0.302 -0.874,0.546 0.046,0.208 0.312,0.198 0.218,0.547"
         style="fill:#000000;fill-opacity:1;fill-rule:evenodd;stroke:none;stroke-width:0.1"
         id="path5998" />
      <path
         d="m 306.371,542.752 c 1.541,0.648 1.388,-1.727 0.328,-1.748 -0.701,-0.014 -1.332,1.326 -0.328,1.748"
         style="fill:#000000;fill-opacity:1;fill-rule:evenodd;stroke:none;stroke-width:0.1"
         id="path6006" />
      <path
         d="m 263.527,542.752 c 0.489,0.089 0.607,-0.194 0.656,-0.546 -0.38,-0.298 -0.937,0.15 -0.656,0.546"
         style="fill:#000000;fill-opacity:1;fill-rule:evenodd;stroke:none;stroke-width:0.1"
         id="path6008" />
      <path
         d="m 275.331,540.895 c -0.158,-0.061 -0.267,-0.172 -0.328,-0.329 -0.636,-0.089 -0.853,0.24 -1.093,0.547 0.127,0.809 1.498,0.653 1.421,-0.218"
         style="fill:#000000;fill-opacity:1;fill-rule:evenodd;stroke:none;stroke-width:0.1"
         id="path6018" />
      <path
         d="m 280.796,541.332 c 0.342,0.05 0.488,-0.095 0.437,-0.437 -0.253,-0.036 -0.42,0.017 -0.547,0.109 0.058,0.088 0.114,0.177 0.11,0.328"
         style="fill:#000000;fill-opacity:1;fill-rule:evenodd;stroke:none;stroke-width:0.1"
         id="path6020" />
      <path
         d="m 286.37,540.566 c 2.994,0.473 2.831,-3.974 0.328,-3.715 -2.094,0.216 -2.885,3.312 -0.328,3.715"
         style="fill:#000000;fill-opacity:1;fill-rule:evenodd;stroke:none;stroke-width:0.1"
         id="path6022" />
      <path
         d="m 281.779,539.364 c -0.375,-0.4 -1.052,-0.372 -1.42,0 -0.35,1.514 1.709,1.305 1.42,0"
         style="fill:#000000;fill-opacity:1;fill-rule:evenodd;stroke:none;stroke-width:0.1"
         id="path6026" />
      <path
         d="m 296.316,539.364 c 0.146,0 0.291,0 0.438,0 0,-0.145 0,-0.291 0,-0.437 -0.343,-0.05 -0.489,0.095 -0.438,0.437"
         style="fill:#000000;fill-opacity:1;fill-rule:evenodd;stroke:none;stroke-width:0.1"
         id="path6028" />
      <path
         d="m 238.935,538.381 c 0.253,0.035 0.42,-0.018 0.546,-0.11 -0.01,-0.325 -0.651,-0.292 -0.546,0.11"
         style="fill:#000000;fill-opacity:1;fill-rule:evenodd;stroke:none;stroke-width:0.1"
         id="path6038" />
      <path
         d="m 303.53,537.178 c 0.316,-0.084 0.531,-0.27 0.437,-0.765 -0.27,-0.014 -0.527,-0.017 -0.656,0.11 -0.062,0.354 0.033,0.549 0.219,0.655"
         style="fill:#000000;fill-opacity:1;fill-rule:evenodd;stroke:none;stroke-width:0.1"
         id="path6046" />
    </g>
  </g>
</svg>
