<?xml version="1.0" encoding="iso-8859-1"?>
<!-- Uploaded to: SVG Repo, www.svgrepo.com, Generator: SVG Repo Mixer Tools -->
<svg fill="#000000" height="800px" width="800px" version="1.1" id="Layer_1" xmlns="http://www.w3.org/2000/svg" xmlns:xlink="http://www.w3.org/1999/xlink" 
	 viewBox="0 0 512 512" xml:space="preserve">
<g>
	<g>
		<path d="M495.765,405.028L351.67,260.933c-6.974-6.975-18.283-6.975-25.258,0l-20.138,20.138l-28.831-28.831
			c48.443-61.011,44.484-150.258-11.9-206.641c-60.797-60.797-159.197-60.802-219.999,0c-60.654,60.653-60.654,159.346,0,219.999
			c56.38,56.381,145.628,60.343,206.641,11.9l28.831,28.831l-20.138,20.138c-6.975,6.975-6.975,18.283,0,25.258l144.094,144.094
			c21.579,21.579,56.685,21.571,78.255,0l12.537-12.535C517.34,461.707,517.339,426.603,495.765,405.028z M114.641,187.005
			c0,9.864-7.997,17.86-17.86,17.86c-9.864,0-17.86-7.997-17.86-17.86v-21.504c0-9.864,7.997-17.86,17.86-17.86
			c9.864,0,17.86,7.997,17.86,17.86V187.005z M173.404,187.005c0,9.864-7.997,17.86-17.86,17.86c-9.864,0-17.86-7.997-17.86-17.86
			v-49.044c0-9.864,7.997-17.86,17.86-17.86c9.864,0,17.86,7.997,17.86,17.86V187.005z M232.167,187.005
			c0,9.864-7.997,17.86-17.86,17.86c-9.864,0-17.86-7.997-17.86-17.86V124.19c0-9.864,7.997-17.86,17.86-17.86
			c9.864,0,17.86,7.997,17.86,17.86V187.005z"/>
	</g>
</g>
</svg>