<?xml version="1.0" encoding="iso-8859-1"?>
<!-- Uploaded to: SVG Repo, www.svgrepo.com, Generator: SVG Repo Mixer Tools -->
<svg height="800px" width="800px" version="1.1" id="Layer_1" xmlns="http://www.w3.org/2000/svg" xmlns:xlink="http://www.w3.org/1999/xlink" 
	 viewBox="0 0 512.001 512.001" xml:space="preserve">
<path style="fill:#CAD1D8;" d="M24,16h464c13.254,0,24,10.745,24,24v432c0,13.254-10.745,24-24,24H24C10.745,496,0,485.255,0,472V40
	C0,26.745,10.745,16,24,16z"/>
<g>
	<circle style="fill:#9BA7AF;" cx="24.002" cy="47.995" r="7.998"/>
	<circle style="fill:#9BA7AF;" cx="56.002" cy="47.995" r="7.998"/>
	<circle style="fill:#9BA7AF;" cx="88.002" cy="47.995" r="7.998"/>
</g>
<path style="fill:#FFFFFF;" d="M24,80h464c4.418,0,8,3.582,8,8v384c0,4.418-3.582,8-8,8H24c-4.418,0-8-3.582-8-8V88
	C16,83.582,19.582,80,24,80z"/>
<path style="fill:#E2E5E7;" d="M120,40h368c4.418,0,8,3.582,8,8l0,0c0,4.418-3.582,8-8,8H120c-4.418,0-8-3.582-8-8l0,0
	C112,43.582,115.582,40,120,40z"/>
<path style="fill:#FDBA4D;" d="M64,288h88.001c4.418,0,8,3.582,8,8v64c0,4.418-3.582,8-8,8H64c-4.418,0-8-3.582-8-8v-64
	C56,291.582,59.582,288,64,288z"/>
<path style="fill:#ABE1FA;" d="M184.001,288h176c4.418,0,8,3.582,8,8v64c0,4.418-3.582,8-8,8h-176c-4.418,0-8.001-3.582-8.001-8v-64
	C176,291.582,179.582,288,184.001,288z"/>
<path style="fill:#FDBA4D;" d="M64,384h48c4.418,0,8,3.582,8,8v16c0,4.418-3.582,8-8,8H64c-4.418,0-8-3.582-8-8v-16
	C56,387.582,59.582,384,64,384z"/>
<g>
	<path style="fill:#3CB54A;" d="M344,384h104c4.418,0,8,3.582,8,8v16c0,4.418-3.582,8-8,8H344c-4.418,0-8-3.582-8-8v-16
		C336,387.582,339.582,384,344,384z"/>
	<path style="fill:#3CB54A;" d="M144,384h168c4.418,0,8,3.582,8,8v16c0,4.418-3.582,8-8,8H144c-4.418,0-8.001-3.582-8.001-8v-16
		C136.001,387.582,139.582,384,144,384z"/>
	<path style="fill:#3CB54A;" d="M448,176h-48c-4.418,0-8-3.582-8-8.001v-16c0-4.418,3.582-8.001,8-8.001h48c4.418,0,8,3.582,8,8.001
		v16C456,172.418,452.418,176,448,176z"/>
</g>
<path style="fill:#FDBA4D;" d="M168.001,176H64c-4.418,0-8-3.582-8-8.001v-16c0-4.418,3.582-8.001,8-8.001h104.001
	c4.418,0,8,3.582,8,8.001v16C176,172.418,172.418,176,168.001,176z"/>
<path style="fill:#ABE1FA;" d="M368,176H200.001c-4.418,0-8.001-3.582-8.001-8.001v-16c0-4.418,3.582-8.001,8.001-8.001h168.001
	c4.418,0,8,3.582,8,8.001v16C376,172.418,372.418,176,368,176z"/>
<g>
	<path style="fill:#3CB54A;" d="M392,288h56c4.418,0,8,3.582,8,8v64c0,4.418-3.582,8-8,8h-56c-4.418,0-8-3.582-8-8v-64
		C384,291.582,387.582,288,392,288z"/>
	<path style="fill:#3CB54A;" d="M64,192h56c4.418,0,8,3.582,8,8.001v64c0,4.418-3.582,8-8,8H64c-4.418,0-8-3.582-8-8v-64
		C56,195.582,59.582,192,64,192z"/>
	<path style="fill:#3CB54A;" d="M152.001,192h112c4.418,0,8,3.582,8,8.001v64c0,4.418-3.582,8-8,8h-112
		c-4.418,0-8.001-3.582-8.001-8v-64C144,195.582,147.582,192,152.001,192z"/>
</g>
<path style="fill:#ABE1FA;" d="M296,192h152c4.418,0,8,3.582,8,8.001v64c0,4.418-3.582,8-8,8H296c-4.418,0-8-3.582-8-8v-64
	C288,195.582,291.582,192,296,192z"/>
<path style="fill:#EE2C39;" d="M232.001,112c-26.934,0.482-48.401,22.665-48,49.601c0,32,30.96,81.44,34.48,86.96
	c4.725,7.467,14.61,9.689,22.077,4.964c2.001-1.267,3.697-2.962,4.964-4.964c3.521-5.52,34.48-55.2,34.48-86.96
	C280.401,134.665,258.934,112.482,232.001,112z"/>
<path style="fill:#CC202C;" d="M245.52,248.56c3.52-5.52,34.48-55.2,34.48-86.96c0-1.76,0-3.467,0-5.12c-2.96-29.6-48-26.24-48,3.52
	V256C237.484,256.001,242.586,253.193,245.52,248.56z"/>
<circle style="fill:#FFFFFF;" cx="231.998" cy="161.598" r="15.995"/>
</svg>