<?xml version="1.0" encoding="iso-8859-1"?>
<!-- Uploaded to: SVG Repo, www.svgrepo.com, Generator: SVG Repo Mixer Tools -->
<svg version="1.1" id="Layer_1" xmlns="http://www.w3.org/2000/svg" xmlns:xlink="http://www.w3.org/1999/xlink" 
	 viewBox="0 0 512 512" xml:space="preserve">
<rect y="28.668" width="512" height="397.336"/>
<circle style="fill:#E21B1B;" cx="44.192" cy="60.724" r="8.928"/>
<g style="opacity:0.7;">
	<circle style="fill:#FFFFFF;" cx="70.968" cy="60.724" r="8.928"/>
</g>
<g>
	<circle style="fill:#666666;" cx="97.736" cy="60.724" r="8.928"/>
	<polygon style="fill:#666666;" points="443.52,76.404 155.96,76.404 175.08,45.06 462.656,45.06 	"/>
</g>
<g>
	<path style="fill:#FFFFFF;" d="M195.2,53.74l1.856,7.128c0.408,1.56,0.8,3.008,1.048,4.456h0.096c0.312-1.416,0.8-2.92,1.24-4.424
		l2.296-7.16h2.144l2.168,7.008c0.52,1.672,0.928,3.16,1.248,4.576h0.088c0.28-1.536,0.64-3.048,1.08-4.544l2.008-7.04h2.52
		l-4.52,14.016h-2.312l-2.144-6.688c-0.488-1.6-0.896-2.952-1.248-4.616h-0.056c-0.336,1.568-0.76,3.12-1.28,4.64l-2.264,6.664
		h-2.312l-4.224-14.016H195.2z"/>
	<path style="fill:#FFFFFF;" d="M216.856,53.74l1.856,7.128c0.408,1.56,0.8,3.008,1.048,4.456h0.088
		c0.32-1.416,0.8-2.92,1.248-4.424l2.28-7.16h2.144l2.176,7.008c0.52,1.672,0.928,3.16,1.24,4.576h0.096
		c0.272-1.536,0.632-3.056,1.08-4.544l2.008-7.04h2.52l-4.52,14.016h-2.328l-2.144-6.688c-0.496-1.512-0.912-3.056-1.24-4.616
		h-0.064c-0.328,1.568-0.752,3.12-1.272,4.64l-2.264,6.664h-2.328l-4.232-14.016H216.856z"/>
	<path style="fill:#FFFFFF;" d="M238.488,53.74l1.856,7.128c0.408,1.56,0.8,3.008,1.048,4.456h0.088
		c0.32-1.416,0.8-2.92,1.248-4.424l2.28-7.16h2.144l2.176,7.008c0.52,1.672,0.928,3.16,1.24,4.576h0.096
		c0.272-1.536,0.632-3.056,1.08-4.544l2.008-7.04h2.52l-4.52,14.016h-2.328l-2.152-6.688c-0.496-1.512-0.912-3.056-1.24-4.616
		h-0.064c-0.328,1.568-0.752,3.12-1.272,4.64l-2.264,6.664h-2.328l-4.232-14.016H238.488z"/>
</g>
<g>
	<polygon style="fill:#666666;" points="0,394.924 82.856,394.924 113.944,426.004 0,426.004 	"/>
	<polygon style="fill:#666666;" points="512,394.924 429.144,394.924 398.056,426.004 512,426.004 	"/>
</g>
<path style="fill:#E21B1B;" d="M421.344,420.668L421.344,420.668l-48.8-48.8l-10.712-10.704
	c-12.784-11.552-32.52-10.544-44.064,2.24c-10.736,11.888-10.728,29.984,0.024,41.856l18.496,18.48l0.072,0.088l18.704,18.704
	l40.8,40.8l44.048-44.096L421.344,420.668z"/>
<ellipse style="fill:#666666;" cx="235.264" cy="278.764" rx="150.536" ry="150.44"/>
<ellipse style="fill:#FFFFFF;" cx="235.264" cy="278.764" rx="125.312" ry="125.232"/>
<path style="fill:#CCCCCC;" d="M235.264,392.436c-62.776-0.048-113.64-50.976-113.592-113.752s50.976-113.64,113.752-113.592
	c62.752,0.048,113.592,50.92,113.592,113.672C348.928,341.532,298.04,392.388,235.264,392.436z M235.264,181.084
	c-53.944,0.048-97.64,43.808-97.592,97.752s43.808,97.64,97.752,97.592c53.912-0.048,97.584-43.752,97.592-97.664
	C332.936,224.82,289.208,181.116,235.264,181.084z"/>
<path style="fill:#E21B1B;" d="M235.264,391.132C173.2,391.084,122.92,340.74,122.968,278.676
	c0.048-62.064,50.392-112.344,112.456-112.296c62.032,0.048,112.296,50.344,112.296,112.376
	C347.624,340.82,297.32,391.084,235.264,391.132z M235.264,170.38c-59.856,0.048-108.344,48.6-108.296,108.456
	c0.048,59.856,48.6,108.344,108.456,108.296c59.824-0.048,108.296-48.552,108.296-108.376
	C343.632,218.908,295.112,170.428,235.264,170.38z"/>
</svg>